<svg id="Capa_1" enable-background="new 0 0 512 512" height="512" viewBox="0 0 512 512" width="512" xmlns="http://www.w3.org/2000/svg"><g id="XMLID_1124_"><g id="XMLID_258_"><path id="XMLID_284_" d="m242.825 215h-128.984c-18.477 0-33.508 15.031-33.508 33.508v88.984c0 18.477 15.031 33.508 33.508 33.508h128.984c18.477 0 33.508-15.031 33.508-33.508v-88.984c0-18.477-15.031-33.508-33.508-33.508zm13.508 122.492c0 7.448-6.06 13.508-13.508 13.508h-128.984c-7.448 0-13.508-6.06-13.508-13.508v-88.984c0-7.448 6.06-13.508 13.508-13.508h128.984c7.448 0 13.508 6.06 13.508 13.508z"/><path id="XMLID_285_" d="m196.612 284.34-26.558-15.333c-3.094-1.787-6.906-1.787-10 0-3.094 1.786-5 5.088-5 8.66v30.666c0 3.572 1.906 6.874 5 8.66 1.547.894 3.273 1.34 5 1.34s3.453-.446 5-1.34l26.558-15.333c3.094-1.786 5-5.088 5-8.66s-1.906-6.874-5-8.66z"/><path id="XMLID_288_" d="m506.617 93.13-124.879-65c-2.895-1.506-6.34-1.506-9.234 0l-124.88 65c-3.308 1.722-5.383 5.141-5.383 8.87s2.075 7.148 5.383 8.87l48.084 25.028v21.102h-200.708c-36.944 0-67 30.056-67 67v185h-18c-5.522 0-10 4.478-10 10 0 36.393 29.607 66 66 66h326c36.393 0 66-29.607 66-66 0-5.522-4.478-10-10-10h-18v-185c0-1.402-.06-2.802-.147-4.201l22.589-9.595c3.693-1.568 6.091-5.192 6.091-9.204v-65.102l33.467-17.42v61.203c0 5.522 4.478 10 10 10s10-4.478 10-10v-77.681c0-3.73-2.075-7.149-5.383-8.87zm-96.617 315.87h-136c-5.522 0-10 4.478-10 10s4.478 10 10 10h162.905c-4.579 20.571-22.975 36-44.905 36h-326c-21.931 0-40.326-15.429-44.905-36h162.905c5.522 0 10-4.478 10-10s-4.478-10-10-10h-136v-185c0-25.916 21.084-47 47-47h200.708v24c0 4.012 2.397 7.636 6.091 9.204l71.413 30.333c1.249.53 2.579.796 3.909.796s2.66-.266 3.909-.796l28.97-12.305zm28.533-214.617-61.412 26.086-61.413-26.086v-48.075l56.796 29.562c1.447.753 3.032 1.13 4.617 1.13s3.17-.377 4.617-1.13l56.795-29.562zm-61.412-38.657-103.221-53.726 103.221-53.727 103.22 53.727z"/><path id="XMLID_291_" d="m370.05 94.929c-1.86 1.86-2.93 4.44-2.93 7.07s1.069 5.21 2.93 7.069c1.86 1.86 4.44 2.931 7.07 2.931s5.21-1.07 7.069-2.931c1.86-1.859 2.931-4.439 2.931-7.069s-1.07-5.21-2.931-7.07c-1.859-1.86-4.43-2.93-7.069-2.93-2.63.001-5.21 1.07-7.07 2.93z"/><path id="XMLID_297_" d="m371.667 351h-54.667c-5.522 0-10 4.478-10 10s4.478 10 10 10h54.667c5.522 0 10-4.478 10-10s-4.478-10-10-10z"/><path id="XMLID_298_" d="m371.667 303h-54.667c-5.522 0-10 4.478-10 10s4.478 10 10 10h54.667c5.522 0 10-4.478 10-10s-4.478-10-10-10z"/><path id="XMLID_299_" d="m229 409c-2.63 0-5.21 1.069-7.07 2.93s-2.93 4.429-2.93 7.07c0 2.63 1.069 5.21 2.93 7.069 1.86 1.86 4.44 2.931 7.07 2.931s5.21-1.07 7.069-2.931c1.861-1.859 2.931-4.439 2.931-7.069s-1.07-5.21-2.931-7.07c-1.859-1.861-4.439-2.93-7.069-2.93z"/></g></g></svg>