<?xml version="1.0" encoding="utf-8"?>
<svg xmlns="http://www.w3.org/2000/svg" xmlns:xlink="http://www.w3.org/1999/xlink" version= "1.1" width="720px" height="1424px" viewBox="0 0 720 1424">
<g id="layer1">
<g style="fill:rgb(0,0,0); fill-opacity:1.0; stroke-linejoin: miter">
<path d="M585.44904,257.47372C555.96735,262.67624,539.6657,268.74606,520.4157,281.57944C484.86423,305.3382,463.013,338.982,455.38245,382.33768C453.47473,393.26352,453.64813,409.91193,455.7292,431.58948C456.0761,434.88464,455.03546,436.44577,450.1797,438.70016C440.12112,443.55576,412.37363,454.1343,409.59885,454.1343C408.90512,454.1343,405.78354,455.17514,402.83542,456.56247C399.71387,457.77634,388.7882,462.11203,378.20938,465.92725C367.80408,469.74237,352.54282,475.29187,344.73883,478.23993C336.7614,481.1883,329.65118,483.61646,328.78403,483.61646C327.91696,483.61646,323.0612,477.54626,317.85852,470.08948C293.5793,435.92514,265.13812,416.67505,224.73077,407.1369C212.24431,404.01538,181.72206,404.01532,167.50146,407.13684C97.95917,421.53088,49.227562,480.66766,48.880817,551.25073C48.707325,572.23486,50.441563,582.4667,57.725296,602.4104C85.29944,677.6752,166.80782,716.34875,243.80734,690.8556C251.091,688.4281,253.17209,688.2544,255.25314,690.162C257.5076,692.0696,312.82928,782.9427,314.73685,787.9721C315.08368,788.8392,316.29767,790.9205,317.51166,792.30743C322.88763,798.72437,321.67374,802.1926,307.10623,824.73755C263.23047,892.3724,260.28232,896.3609,256.81387,896.3609C254.73286,896.3609,252.47826,895.6672,251.43776,894.9736C249.87703,893.5865,237.9109,889.77106,223.69034,886.12933C214.49893,883.7011,175.82579,883.701,166.63438,885.9554C118.59649,898.26874,84.25907,924.6286,64.31545,964.86237C53.0431,987.40717,48.88099,1005.2695,48.881,1030.7626C48.881,1056.256,53.043125,1074.1183,64.31548,1096.663C84.25904,1136.7233,121.02448,1165.1649,165.76736,1175.0494C183.28293,1178.8649,212.41782,1178.3448,229.9335,1174.0092C259.2418,1166.726,283.17407,1152.3317,304.85187,1128.7465C311.96204,1121.1154,318.89902,1114.8724,320.28635,1114.8724C321.67374,1114.8724,352.71625,1129.9603,389.48175,1148.3429C455.55548,1181.4667,456.24915,1181.9867,455.90222,1187.016C452.7807,1225.8627,453.47437,1236.4415,460.758,1259.1595C476.8864,1309.7987,517.6407,1346.7374,571.57477,1359.5709C583.88763,1362.5192,618.2253,1362.5192,630.5384,1359.5709C700.25385,1343.0958,748.4653,1283.786,748.4654,1214.5907C748.4654,1190.4847,740.4881,1161.1766,729.0423,1142.2736C725.74725,1136.8976,724.53326,1133.2555,725.4002,1131.5216C726.9611,1128.7467,741.5286,1112.9652,765.6342,1087.9923C813.8457,1037.8737,847.4896,1002.6689,903.6782,943.53217C911.1356,935.72815,917.7256,929.3114,918.41943,929.3114C919.11304,929.3114,925.18274,932.4331,931.59937,936.24805C969.40515,958.273,1012.76086,962.9555,1053.3416,949.0817C1102.0735,932.6068,1138.6655,891.5055,1150.9785,839.1319C1153.9268,826.819,1153.9269,792.4817,1150.9786,780.1685C1140.2264,734.73175,1109.5309,695.365,1070.8575,677.32886C1023.5134,655.13116,975.3021,657.5591,930.0386,683.9189C919.80676,689.98895,915.99146,691.37604,913.5635,690.16205C909.74817,687.90765,718.9841,496.9699,718.9841,495.23572C718.9841,494.54205,722.45245,487.95197,726.788,480.4948C749.6799,441.30112,754.5356,398.46597,740.4886,357.365C724.3604,309.67392,683.9528,272.9083,634.00726,260.59518C624.1224,258.16702,592.9062,256.0861,585.44904,257.47372 Z M627.93756,297.18738C686.90106,312.44852,723.1463,373.49316,708.05853,431.58954C700.081,461.76535,677.883,489.33923,650.6557,502.6928C606.9534,524.1973,557.3547,516.0462,523.19037,481.88214C486.2515,444.94308,480.00827,389.448,507.7558,345.39874C521.45636,323.7212,547.9898,304.1243,572.9627,297.1874C584.4084,294.06583,615.9714,294.06586,627.93756,297.18738 Z M221.6091,444.42264C240.51213,449.45175,256.98724,458.29654,269.9939,470.08942C316.64453,512.92456,318.2053,584.5478,273.289,629.2908C245.71494,657.0385,206.00125,668.31085,169.75604,658.946C140.44768,651.31537,119.46359,636.05414,102.641624,610.21436C90.5021,591.6583,85.99316,575.5298,85.993126,550.55707C85.993126,521.76886,95.35786,497.66327,114.78107,476.85248C126.920616,463.67273,143.39574,453.09372,161.08487,447.0239C173.0509,442.8619,178.25359,442.16824,193.86159,441.99484C204.78722,441.99484,216.233,443.0353,221.6091,444.42264 Z M477.40695,483.963C481.2222,490.03284,489.0262,500.09125,494.92252,506.33453L505.32806,517.60724L496.13666,532.3481C490.934,540.3252,483.13004,552.8117,478.4476,559.92194C473.93857,567.0323,461.62558,586.1089,451.04675,602.4107C440.46808,618.53894,430.23615,634.49365,428.50195,637.442C426.59424,640.5635,423.99298,643.16504,422.43213,643.16504C421.04474,643.16504,400.9277,633.6266,377.68915,622.00714C340.5768,603.45105,335.54764,600.5027,336.24136,597.3812C342.48453,569.2866,343.0048,564.95123,342.31104,546.04846C341.7909,535.1227,340.92377,524.89087,340.2301,523.33014C338.66925,519.8615,344.3922,516.91345,376.47525,505.64087C398.84668,497.66345,426.5942,487.43164,444.97693,480.4947C455.0354,476.67926,464.9206,473.55786,466.82812,473.38446C469.603,473.211,472.37772,475.9856,477.40695,483.963 Z M790.78076,620.4466L889.458,719.1238L881.8274,731.7837C877.49194,738.8937,872.6361,748.0853,870.90186,752.42065C862.75085,772.88464,863.2711,772.0172,857.2014,770.8036C854.07983,770.2833,845.7554,769.06946,838.64526,768.0287C831.5349,767.1618,817.14087,765.25433,806.56213,763.6932C796.157,762.3056,780.54895,760.2247,772.0514,759.18414C748.986,756.40936,749.1595,756.5828,747.9455,742.5357C743.43634,691.8965,713.4345,646.8066,668.518,623.56824C627.5905,602.23724,580.0727,601.5435,537.0643,621.66077C519.3752,629.9847,500.12518,645.41943,485.21085,663.4552C481.916,667.6172,478.2739,670.91223,477.06015,670.91223C473.93845,670.91223,458.85074,662.24133,458.85074,660.33374C458.85074,659.46643,463.35977,651.66235,468.90927,642.99133C474.28537,634.32025,480.00833,625.4758,481.39566,623.0477C482.7831,620.79333,490.93393,608.13367,499.43158,595.12683C508.10266,581.947,519.3752,564.60455,524.5777,556.4538C535.85016,539.11163,537.93134,536.85693,542.09344,539.11163C554.5799,545.8748,581.1132,551.2509,601.05695,551.2509C630.3654,551.251,655.51154,543.7938,681.6983,527.3188C686.55414,524.3704,690.71625,521.76917,691.2365,521.76917C691.75665,521.76917,736.4998,566.1654,790.78076,620.4466 Z M360.86722,654.95764C389.65524,669.52466,400.75427,676.1147,400.58087,678.196C400.4074,679.75665,396.07184,687.5606,390.86914,695.538C385.66663,703.3421,376.12823,718.08295,369.5382,728.1414C346.12622,764.56006,345.77948,764.90686,342.83124,762.1322C341.27045,760.7446,338.49567,756.58264,336.58807,752.94055C333.6399,747.2179,309.18735,706.11676,304.50497,698.65985C303.46448,697.2723,302.2505,694.8444,301.55676,693.4571C300.8631,692.0694,297.39465,685.99994,293.57935,679.9301L286.81586,669.0046L298.78217,656.51825C305.37204,649.58136,312.30902,641.95074,313.8698,639.17615C315.60397,636.5746,317.85852,634.4936,319.0725,634.4936C320.113,634.4936,339.01605,643.6849,360.86722,654.95764 Z M616.4914,644.89874C641.4643,649.0612,663.31537,660.3338,680.3107,678.02246C692.45026,690.85583,700.25433,703.8627,706.1508,721.2051C710.4864,733.8646,711.1801,738.54694,711.00653,754.15485C710.83307,781.0356,705.2836,798.0312,689.15533,820.4023C684.47296,826.8189,677.36273,834.62286,673.37396,837.74475C669.3852,840.8662,665.22296,844.33484,664.0091,845.375C659.49994,849.7107,635.9146,859.76917,624.122,862.37036C600.1899,867.7466,576.2575,864.7982,552.8454,853.526C545.9086,850.0574,539.31854,846.5891,538.10455,845.3749C536.8907,844.3347,532.72845,840.8661,528.7399,837.7446C515.03937,826.99207,500.99213,804.621,494.22888,782.7697C489.5465,767.16174,489.8933,739.5874,495.09576,723.80597C506.5418,688.6012,532.5551,661.0275,564.63837,650.2751C584.5817,643.5114,598.62885,642.1242,616.4914,644.89874 Z M448.44534,698.66C453.9949,701.43427,459.02414,704.5561,459.7178,705.59686C460.23813,706.4639,459.19754,714.7878,457.28983,723.80597C445.15042,779.3011,466.65457,837.3976,511.74426,870.8679C532.03485,885.95557,545.73505,892.37244,568.9738,897.9219L581.11334,900.8701L581.1132,984.80634L581.1131,1068.7428L568.9737,1071.6906C562.3836,1073.2516,553.36554,1075.8529,549.0302,1077.587C532.9018,1083.6569,533.76886,1084.1771,521.28253,1063.5397C515.03925,1053.3077,509.66327,1044.1166,509.31628,1043.076C508.9696,1042.0353,502.55292,1031.4564,495.26917,1019.49054C487.98566,1007.5246,481.56897,996.59894,480.87518,995.2115C480.18164,993.8243,478.9676,991.3963,477.92694,990.00885C474.45862,984.6326,453.99487,950.642,449.83276,943.1849C447.40482,938.84955,427.98154,906.24603,406.824,870.521C385.49304,834.79614,367.80405,804.10034,367.45724,802.5397C366.93698,800.80554,369.71164,795.08246,373.5269,789.35944C380.29044,779.6479,398.49976,751.5537,420.0041,718.08295C431.10315,700.56744,436.13235,693.4571,437.34634,693.4571C437.86667,693.4571,442.72247,695.7116,448.44534,698.66 Z M1026.635,701.2614C1052.4747,706.63727,1070.1641,716.6956,1087.5062,735.42554C1106.9296,756.40967,1116.4677,780.8625,1116.2941,809.65027C1116.2941,838.6119,1106.9293,862.8908,1087.5059,883.8749C1043.977,930.8723,973.74097,932.4331,928.8246,887.5167C885.1223,843.6412,885.1223,775.6593,928.9983,731.6102C943.73926,716.8694,962.989,706.2907,981.7186,702.1285C987.44165,700.9146,992.99084,699.7006,993.85815,699.5269C998.5405,697.96625,1015.8828,699.00665,1026.635,701.2614 Z M767.54205,795.7763C774.6526,796.6434,789.5668,798.55096,800.4923,800.11163C811.4177,801.6724,828.5867,803.92706,838.4717,805.3144C849.5707,806.7021,857.02795,808.43634,857.89514,809.82367C858.7622,811.211,859.4558,815.5467,859.4558,819.5352C859.4558,830.63446,865.5255,855.2602,871.7688,869.48083C875.23706,877.2849,887.3767,897.05493,889.11096,897.74866C893.2731,899.3093,889.11096,905.5526,874.0232,921.50745C848.87683,947.69403,830.84094,966.5971,792.68823,1006.4841C773.6118,1026.4276,748.98566,1052.2677,737.88666,1063.7133C726.9611,1075.1593,714.128,1088.6864,709.4455,1093.5421C700.94806,1103.0802,696.7857,1104.641,692.97064,1100.1322C690.19574,1096.837,668.34454,1083.6571,659.15326,1079.8417C651.17584,1076.3734,638.1691,1072.3844,627.9372,1070.3036L621.0002,1068.7428L621.0003,984.80634L621.0004,900.69666L627.9373,899.13574C652.38983,893.9335,670.4256,885.9557,688.8084,871.9087C713.4345,853.3527,726.0944,836.184,741.3554,800.4588C744.65045,792.65485,745.3442,792.1346,749.6796,793.00165C752.4545,793.69525,760.4318,794.9095,767.54205,795.7763 Z M347.34018,842.0801C348.0339,843.81384,353.23648,853.0055,359.13284,862.54333C365.0292,872.0818,370.2319,881.1,370.92557,882.4872C372.31296,885.4354,374.74094,889.59753,389.4819,913.7032C395.03146,922.72125,421.9117,967.9843,449.31244,1014.2878C476.71313,1060.5917,499.77814,1099.0912,500.64532,1099.9584C503.07318,1102.733,502.72632,1103.7736,495.0957,1112.618C491.10712,1117.1268,486.42474,1122.6764,484.6903,1124.9308C482.7827,1127.1857,478.79407,1132.9083,475.84583,1137.5907C472.5509,1143.1405,469.60272,1146.0883,467.69513,1145.7416C462.83936,1144.8746,335.72092,1080.1881,335.72092,1078.6273C335.72092,1077.7601,337.2817,1070.997,339.1893,1063.5397C344.91232,1040.4745,343.35156,1005.96356,335.54755,983.9389C327.74353,962.6082,314.73685,941.62384,300.34286,927.57697C296.00726,923.4146,292.36554,918.9058,292.36554,917.51825C292.36554,916.3045,297.568,907.113,304.158,897.0546C310.57474,887.1695,321.5003,870.0008,328.61066,859.07495C341.27042,839.4785,345.08566,836.0099,347.34018,842.0801 Z M221.60925,923.41473C246.23515,929.658,270.3409,945.9598,285.25513,966.4233C291.3249,975.09454,292.7123,977.5224,298.2618,990.0087C309.36075,1015.3283,308.32028,1051.5736,295.66052,1077.9337C281.96008,1106.5485,252.99858,1130.1334,221.95612,1138.1112C208.2557,1141.5795,183.97664,1141.5795,170.27632,1138.1112C133.51086,1128.9196,103.68236,1101.6925,90.67568,1065.6207C87.38064,1056.6027,86.860405,1051.4,86.860374,1030.7628C86.86038,1010.1257,87.380615,1004.9228,90.67566,995.90497C103.50886,960.5269,131.60321,934.34015,167.67497,924.10846C181.89561,919.9462,206.86838,919.773,221.60925,923.41473 Z M626.89667,1107.9357C674.2408,1120.0753,706.3239,1157.7081,711.5264,1206.6129C712.7403,1218.4059,709.7923,1237.829,704.763,1252.3966C693.49054,1284.9996,662.6213,1313.0939,627.9371,1322.1119C615.4506,1325.4069,586.66254,1325.4069,574.1762,1322.1119C548.3361,1315.3483,521.80255,1296.2716,507.7553,1273.9003C480.00787,1229.8512,486.25116,1174.3563,523.1901,1137.5907C550.9378,1109.67,590.47797,1098.3976,626.89667,1107.9357 Z"/>
</g>
<g>
<g style="fill:rgb(0,150,136); fill-opacity:1.0; stroke-linejoin: miter">
<path d="M601.04474,404.0397C625.64606,404.04135,634.5035,379.41196,636.82416,359.17673C639.6838,334.25034,627.89984,315.4877,601.06024,315.48297C574.22626,315.47827,562.43036,334.2353,565.28094,359.1642C567.5975,379.3984,576.44196,404.03806,601.04474,404.0397 Z"/>
</g>
<g style="fill:rgb(0,150,136); fill-opacity:1.0; stroke-linejoin: miter">
<path d="M667.58453,462.70724C667.3171,454.85516,666.3985,446.96765,665.02936,439.23773C663.3709,429.87357,661.26044,416.14572,653.08636,410.04346C648.3591,406.51437,642.237,405.3558,636.8249,403.22714C634.19073,402.19147,631.831,401.16342,629.6164,399.9928C622.1396,408.1891,612.3914,412.4758,601.0389,412.4744C589.6906,412.47247,579.945,408.1823,572.471,399.98285C570.25604,401.15286,567.89594,402.18054,565.26154,403.2146C559.8488,405.34137,553.72626,406.49744,548.9982,410.02524C540.82135,416.12607,538.70636,429.8531,537.04486,439.21524C535.67303,446.94473,534.7513,454.83176,534.48126,462.6838C534.27203,468.76544,537.27484,469.61816,542.36237,471.45526C548.733,473.75397,555.31024,475.46094,561.9317,476.8603C574.72003,479.563,587.9018,481.64117,601.0275,481.73627C614.15326,481.6455,627.336,479.57227,640.12506,476.8741C646.747,475.4775,653.3254,473.773,659.6962,471.47586C664.78644,469.64105,667.7891,468.78915,667.5822,462.70724 Z"/>
</g>
</g>
<g>
<g style="fill:rgb(33,150,243); fill-opacity:1.0; stroke-linejoin: miter">
<path d="M197.42435,546.60254C222.0256,546.60425,230.88309,521.97485,233.2037,501.73962C236.06332,476.81323,224.27939,458.0506,197.43985,458.04587C170.60585,458.04117,158.80995,476.7982,161.66054,501.7271C163.977,521.9613,172.82155,546.60095,197.42435,546.60254 Z"/>
</g>
<g style="fill:rgb(33,150,243); fill-opacity:1.0; stroke-linejoin: miter">
<path d="M263.96414,605.27014C263.69662,597.418,262.77805,589.5305,261.40897,581.8006C259.75052,572.4364,257.64005,558.7086,249.46597,552.6063C244.73862,549.0773,238.61655,547.9187,233.2045,545.79004C230.57034,544.75433,228.21054,543.7263,225.996,542.55566C218.51913,550.75195,208.77097,555.0387,197.41843,555.03723C186.0702,555.03534,176.3246,550.7452,168.8506,542.5457C166.63564,543.7157,164.27553,544.7434,161.64113,545.77747C156.22835,547.90424,150.10579,549.0603,145.37782,552.58813C137.20094,558.68896,135.08595,572.41595,133.42445,581.7781C132.05263,589.50757,131.13081,597.39465,130.8608,605.2467C130.65157,611.3283,133.65443,612.181,138.74196,614.0181C145.11256,616.31683,151.68983,618.0238,158.3113,619.42316C171.09962,622.12585,184.28139,624.20404,197.40714,624.29913C210.5328,624.2084,223.7156,622.13513,236.50461,619.437C243.12656,618.0404,249.70493,616.3359,256.07578,614.0387C261.166,612.2039,264.16873,611.35205,263.96182,605.27014 Z"/>
</g>
</g>
<g>
<g style="fill:rgb(156,39,176); fill-opacity:1.0; stroke-linejoin: miter">
<path d="M201.87596,1027.7526C226.47722,1027.7543,235.3347,1003.12494,237.65532,982.8897C240.51494,957.9633,228.731,939.2007,201.89146,939.196C175.05746,939.1912,163.26157,957.9483,166.11215,982.8772C168.42862,1003.1114,177.27316,1027.7511,201.87596,1027.7526 Z"/>
</g>
<g style="fill:rgb(156,39,176); fill-opacity:1.0; stroke-linejoin: miter">
<path d="M268.41577,1086.4203C268.14825,1078.5682,267.22968,1070.6805,265.8606,1062.9508C264.20215,1053.5865,262.09167,1039.8588,253.91759,1033.7565C249.19023,1030.2274,243.06816,1029.0687,237.65611,1026.9401C235.02196,1025.9044,232.66216,1024.8763,230.44762,1023.70575C222.97075,1031.902,213.22258,1036.1888,201.87004,1036.1874C190.52182,1036.1854,180.77621,1031.8954,173.30222,1023.69586C171.08725,1024.8658,168.72714,1025.8934,166.09274,1026.9276C160.67996,1029.0543,154.5574,1030.2103,149.82944,1033.7382C141.65256,1039.839,139.53757,1053.566,137.87607,1062.9281C136.50424,1070.6576,135.58243,1078.5448,135.31241,1086.3969C135.10318,1092.4784,138.10605,1093.3312,143.19357,1095.1683C149.56418,1097.4669,156.14145,1099.174,162.76291,1100.5734C175.55124,1103.276,188.733,1105.3541,201.85875,1105.4493C214.98442,1105.3585,228.16722,1103.2853,240.95622,1100.587C247.57817,1099.1906,254.15654,1097.486,260.5274,1095.1888C265.6176,1093.3541,268.62036,1092.5021,268.41345,1086.4203 Z"/>
</g>
</g>
<g>
<g style="fill:rgb(0,0,0); fill-opacity:1.0; stroke-linejoin: miter">
<path d="M602.5285,750.052C627.1297,750.0537,635.98724,725.4243,638.3078,705.1891C641.1674,680.2627,629.3835,661.50006,602.544,661.49536C575.71,661.4906,563.9141,680.2477,566.7647,705.1766C569.0811,725.41077,577.9257,750.0504,602.5285,750.052 Z"/>
</g>
<g style="fill:rgb(0,0,0); fill-opacity:1.0; stroke-linejoin: miter">
<path d="M669.0683,808.71967C668.8007,800.86755,667.88214,792.98004,666.5131,785.2501C664.8547,775.8859,662.7442,762.1581,654.5701,756.0558C649.8427,752.52673,643.72064,751.36816,638.30865,749.2395C635.6745,748.2038,633.31464,747.1758,631.10016,746.0051C623.6232,754.2014,613.87506,758.48816,602.5225,758.4867C591.1744,758.4848,581.4288,754.19464,573.9548,745.9952C571.7398,747.16516,569.3797,748.1929,566.7453,749.2269C561.33246,751.3537,555.2099,752.50977,550.482,756.0376C542.3051,762.1384,540.1901,775.8655,538.5286,785.2276C537.1568,792.9571,536.2349,800.8442,535.9649,808.6962C535.7557,814.77783,538.7586,815.63055,543.8461,817.46765C550.21674,819.76636,556.794,821.4733,563.41547,822.8727C576.2038,825.5754,589.38556,827.65356,602.5113,827.74866C615.6369,827.6579,628.81976,825.58466,641.6087,822.88654C648.23065,821.4899,654.809,819.7854,661.1799,817.4882C666.2701,815.65344,669.2729,814.8016,669.066,808.71967 Z"/>
</g>
</g>
<g>
<g style="fill:rgb(255,87,34); fill-opacity:1.0; stroke-linejoin: miter">
<path d="M607.7037,1217.3341C632.3049,1217.3358,641.1624,1192.7064,643.483,1172.4713C646.3426,1147.5448,634.55865,1128.7823,607.7192,1128.7775C580.8852,1128.7728,569.0893,1147.5299,571.9399,1172.4589C574.2563,1192.693,583.1009,1217.3326,607.7037,1217.3341 Z"/>
</g>
<g style="fill:rgb(255,87,34); fill-opacity:1.0; stroke-linejoin: miter">
<path d="M674.24347,1276.0018C673.9759,1268.1498,673.0573,1260.2621,671.6883,1252.5323C670.02985,1243.1681,667.9194,1229.4403,659.7453,1223.338C655.0179,1219.809,648.8958,1218.6503,643.4838,1216.5216C640.8497,1215.486,638.4898,1214.4579,636.2753,1213.2872C628.7984,1221.4835,619.05023,1225.7704,607.6977,1225.7689C596.34955,1225.767,586.60394,1221.4769,579.12994,1213.2775C576.915,1214.4474,574.5549,1215.475,571.9205,1216.5092C566.5076,1218.6359,560.3851,1219.7919,555.65717,1223.3197C547.4803,1229.4205,545.3653,1243.1476,543.7038,1252.5096C542.332,1260.2391,541.4101,1268.1263,541.1401,1275.9784C540.93085,1282.0599,543.9338,1282.9127,549.0213,1284.7499C555.3919,1287.0485,561.9692,1288.7555,568.59064,1290.1549C581.37897,1292.8575,594.5607,1294.9357,607.68646,1295.0309C620.8121,1294.9401,633.99493,1292.8668,646.7839,1290.1686C653.4058,1288.7721,659.9842,1287.0675,666.35504,1284.7704C671.44525,1282.9357,674.44806,1282.0836,674.24115,1276.0018 Z"/>
</g>
</g>
<g>
<g style="fill:rgb(255,152,0); fill-opacity:1.0; stroke-linejoin: miter">
<path d="M1009.6765,817.71674C1034.2777,817.71844,1043.1353,793.08905,1045.4558,772.8538C1048.3154,747.92737,1036.5315,729.16473,1009.692,729.16003C982.85803,729.1553,971.06213,747.91235,973.9127,772.8413C976.2291,793.0755,985.0737,817.71515,1009.6765,817.71674 Z"/>
</g>
<g style="fill:rgb(255,152,0); fill-opacity:1.0; stroke-linejoin: miter">
<path d="M1076.2163,876.38434C1075.9487,868.5322,1075.0302,860.6447,1073.6611,852.9148C1072.0027,843.5506,1069.8922,829.8228,1061.7181,823.7205C1056.9907,820.19147,1050.8687,819.0329,1045.4567,816.90424C1042.8225,815.8685,1040.4626,814.8405,1038.2482,813.66986C1030.7712,821.86615,1021.0231,826.1529,1009.67053,826.1514C998.3224,826.14954,988.5768,821.8594,981.1028,813.6599C978.8878,814.8299,976.5277,815.8576,973.8933,816.89166C968.48047,819.01843,962.3579,820.1745,957.63,823.70233C949.4531,829.80316,947.33813,843.53015,945.67664,852.8923C944.3048,860.62177,943.38293,868.50885,943.1129,876.3609C942.9037,882.4425,945.9066,883.2952,950.99414,885.1323C957.36475,887.431,963.942,889.138,970.5635,890.53735C983.3518,893.24005,996.53357,895.31824,1009.6593,895.4133C1022.7849,895.3226,1035.9678,893.2493,1048.7567,890.5512C1055.3787,889.1546,1061.957,887.4501,1068.3279,885.1529C1073.4181,883.3181,1076.4209,882.46625,1076.214,876.38434 Z"/>
</g>
</g>
</g>
</svg>