<?xml version="1.0" standalone="no"?>
<!DOCTYPE svg PUBLIC "-//W3C//DTD SVG 20010904//EN"
 "http://www.w3.org/TR/2001/REC-SVG-20010904/DTD/svg10.dtd">
<svg version="1.0" xmlns="http://www.w3.org/2000/svg"
 width="2000.000000pt" height="1333.000000pt" viewBox="0 0 2000.000000 1333.000000"
 preserveAspectRatio="xMidYMid meet">
<metadata>
Created by potrace 1.16, written by Peter Selinger 2001-2019
</metadata>
<g transform="translate(0.000000,1333.000000) scale(0.100000,-0.100000)"
fill="#000000" stroke="none">
<path d="M14827 13301 c-9 -16 -17 -34 -17 -39 0 -13 -65 -152 -164 -351 l-76
-153 10 -122 c6 -66 12 -131 15 -143 6 -27 22 -30 27 -5 3 14 14 17 61 18 56
0 58 -1 55 -24 -2 -18 -10 -26 -27 -29 -14 -2 -27 -5 -29 -8 -2 -2 -8 -37 -12
-78 -5 -42 -20 -109 -34 -149 -14 -41 -26 -89 -26 -106 0 -18 -16 -71 -35
-119 -27 -67 -35 -101 -35 -147 1 -121 29 -276 51 -276 18 0 60 45 80 88 21
43 23 44 59 38 47 -7 62 12 83 105 14 62 10 229 -6 245 -10 10 -63 -54 -92
-112 -15 -29 -33 -58 -40 -64 -16 -14 -81 2 -78 18 2 6 -4 9 -12 6 -20 -8 -3
53 41 141 47 92 55 101 83 83 20 -12 24 -10 42 11 32 39 48 118 51 254 1 70 5
127 8 127 3 0 6 30 8 67 1 36 7 84 12 107 15 64 12 142 -5 160 -8 8 -15 22
-15 32 0 22 28 54 43 48 13 -5 42 51 33 64 -3 5 3 42 12 83 l17 74 47 17 c47
17 47 17 91 -8 60 -33 65 -41 69 -103 2 -44 8 -57 31 -77 16 -13 41 -25 55
-26 15 0 38 -3 52 -4 14 -2 50 -6 80 -9 30 -3 82 -9 115 -15 174 -28 242 -32
274 -16 31 16 45 47 39 83 -1 10 5 32 15 47 18 26 21 27 80 23 34 -3 96 -10
137 -16 41 -6 76 -7 78 -2 2 5 24 2 50 -6 26 -8 65 -17 87 -21 32 -6 43 -14
57 -42 10 -19 18 -55 18 -80 1 -40 5 -47 34 -66 20 -13 67 -26 122 -34 49 -7
116 -17 149 -22 33 -5 86 -11 117 -14 51 -5 58 -4 72 18 12 18 13 32 6 63 -14
58 -13 64 14 71 28 7 96 -20 97 -38 1 -7 2 -17 4 -23 1 -5 3 -27 3 -47 2 -45
24 -68 63 -68 19 0 47 -13 76 -35 25 -19 54 -35 65 -35 10 0 21 -8 24 -17 3
-10 12 -32 19 -50 13 -30 13 -34 -10 -62 -14 -16 -25 -32 -25 -36 0 -3 -6 -13
-14 -21 -13 -12 -12 -18 10 -41 13 -14 25 -30 25 -34 1 -5 2 -12 3 -16 1 -5
18 -36 39 -71 20 -35 37 -69 37 -76 0 -8 7 -30 15 -49 22 -54 19 -79 -16 -110
-27 -23 -30 -32 -25 -58 3 -18 6 -49 6 -71 0 -28 7 -46 25 -64 36 -36 45 -57
72 -168 35 -146 82 -457 83 -551 0 -33 7 -78 14 -100 8 -22 12 -50 9 -62 -2
-12 3 -61 13 -110 10 -48 19 -125 19 -170 0 -45 3 -79 8 -76 5 3 7 -36 4 -86
-2 -50 -1 -93 2 -96 9 -5 6 -53 -4 -77 -4 -10 -3 -18 3 -18 11 0 -13 -56 -29
-65 -5 -4 -9 -25 -9 -48 0 -34 4 -44 22 -52 32 -15 55 -63 51 -109 -2 -22 -6
-42 -8 -45 -12 -12 -61 17 -80 46 -11 18 -23 32 -27 33 -4 0 -17 8 -27 17 -17
14 -18 19 -6 36 11 16 11 21 -6 38 -33 33 -118 71 -142 63 -12 -4 -29 -8 -37
-9 -8 0 -31 -4 -52 -9 -44 -10 -52 -32 -38 -107 12 -62 17 -70 34 -46 18 24
26 21 26 -7 0 -15 11 -33 26 -45 15 -12 46 -47 70 -79 63 -82 67 -86 91 -99
29 -16 70 -16 128 -1 52 14 65 5 65 -44 0 -16 5 -28 10 -28 6 0 6 -7 -1 -18
-9 -15 -8 -25 7 -47 20 -31 46 -158 37 -181 -3 -8 0 -36 7 -62 6 -26 14 -81
16 -122 3 -41 9 -93 14 -115 5 -22 11 -85 14 -140 3 -55 10 -116 15 -135 6
-19 15 -84 21 -145 7 -60 16 -144 22 -185 5 -41 11 -114 12 -163 3 -80 2 -89
-18 -103 -14 -11 -17 -18 -8 -21 6 -3 12 -13 12 -23 0 -10 5 -22 10 -25 15
-10 12 -35 -5 -35 -8 0 -15 5 -15 10 0 15 -55 12 -95 -4 -18 -8 -36 -12 -39
-8 -3 3 -6 0 -6 -6 0 -14 -135 -16 -190 -3 -38 8 -54 0 -68 -39 -10 -28 4
-184 17 -188 6 -2 11 -10 11 -17 0 -9 19 -15 58 -19 132 -12 192 -22 204 -34
17 -17 39 -15 67 7 23 18 25 25 23 93 -2 63 1 79 18 101 12 15 25 27 29 27 15
0 40 -133 47 -240 4 -58 12 -117 20 -131 7 -15 11 -29 7 -32 -3 -4 -1 -26 5
-50 8 -29 8 -69 2 -123 -7 -64 -6 -85 7 -111 8 -18 19 -33 23 -33 4 0 11 -12
15 -27 11 -41 14 -213 4 -213 -5 0 -12 -18 -15 -40 -4 -24 -12 -40 -20 -40 -8
0 -14 -4 -14 -10 0 -5 6 -10 14 -10 27 0 37 -54 35 -196 -1 -76 0 -170 2 -209
4 -68 3 -70 -23 -83 -16 -7 -28 -17 -28 -23 0 -5 -8 -9 -18 -9 -11 0 -27 -9
-38 -21 -15 -17 -26 -19 -66 -14 -26 4 -57 4 -69 0 -21 -7 -21 -8 -3 -18 10
-6 40 -9 66 -8 40 2 48 -1 49 -16 2 -34 -2 -58 -14 -82 -10 -19 -9 -25 7 -36
10 -8 16 -19 14 -26 -2 -7 7 -26 20 -41 13 -15 30 -38 38 -52 11 -23 11 -26
-4 -26 -17 0 6 -17 56 -39 12 -6 22 -17 22 -26 0 -8 5 -15 11 -15 6 0 9 -17 7
-42 -3 -38 -7 -45 -38 -60 -19 -9 -30 -17 -25 -18 12 -1 -14 -16 -61 -36 -20
-8 -33 -10 -29 -5 4 7 -4 11 -20 11 -15 0 -24 -4 -20 -10 9 -14 -68 -13 -82 1
-7 7 -24 8 -42 4 -28 -6 -36 -15 -32 -38 1 -4 6 -51 11 -103 11 -110 24 -147
35 -99 4 17 9 37 12 45 4 8 5 18 5 23 -1 4 3 7 9 7 7 0 10 18 7 50 -3 46 -1
51 20 57 29 7 29 7 45 -56 l14 -54 16 54 c8 30 16 44 16 33 1 -27 27 -51 34
-32 7 21 18 2 24 -41 3 -23 9 -41 13 -41 4 0 7 -25 7 -57 0 -41 5 -59 17 -69
15 -11 14 -13 -16 -20 l-33 -7 55 -17 c37 -11 56 -22 58 -34 2 -10 17 -30 34
-45 26 -23 28 -29 19 -53 -7 -18 -20 -30 -38 -34 -50 -11 -53 -13 -53 -44 0
-23 -4 -30 -19 -30 -11 0 -21 5 -23 11 -2 5 -11 7 -22 3 -14 -5 -15 -9 -4 -15
8 -5 -17 -9 -62 -11 -48 -1 -60 -3 -32 -5 23 -2 42 -8 42 -14 0 -5 29 -9 65
-9 36 0 82 -7 102 -15 19 -8 44 -15 54 -15 11 0 19 -4 19 -10 0 -5 6 -10 14
-10 15 0 20 -10 32 -75 11 -57 8 -63 -49 -117 -40 -37 -59 -48 -84 -48 -18 0
-33 -4 -33 -10 0 -5 9 -10 19 -10 27 0 81 -48 81 -71 0 -10 6 -19 13 -19 8 0
8 -3 -2 -9 -13 -8 -13 -12 -1 -26 25 -30 -24 -53 -98 -46 l-24 2 26 -28 c19
-20 26 -39 26 -69 0 -22 3 -44 7 -48 4 -3 7 -14 8 -24 1 -9 5 -42 9 -73 12
-97 -34 -161 -90 -124 -14 9 -44 19 -66 23 -39 7 -42 10 -58 57 -11 34 -18 44
-23 33 -3 -9 -2 -18 3 -20 4 -2 11 -25 15 -52 6 -35 5 -47 -4 -42 -6 4 -11 13
-11 19 -1 7 -23 30 -49 51 -45 37 -50 46 -76 135 -15 53 -31 104 -37 114 -16
30 6 18 52 -28 24 -24 47 -42 51 -39 10 6 28 -28 45 -81 19 -59 18 -5 -1 65
-8 30 -15 88 -15 129 0 190 -68 390 -197 579 -20 28 -40 52 -45 52 -12 0 -38
26 -33 32 3 2 -28 42 -68 88 -70 82 -191 189 -213 190 -6 0 -20 24 -33 54 -12
30 -29 60 -37 67 -8 6 -14 20 -14 31 0 15 -6 19 -27 16 -16 -2 -29 -10 -29
-18 -1 -8 -2 -19 -3 -23 0 -4 -10 -3 -21 3 -24 13 -68 -7 -97 -42 -37 -45
-104 -98 -124 -98 -18 0 -19 2 -9 15 30 36 -154 1 -242 -46 -13 -7 -20 -4 -28
10 -8 16 -18 19 -48 16 -20 -2 -42 -4 -48 -4 -7 -1 -14 -10 -17 -21 -3 -14
-10 -18 -21 -14 -9 4 -25 -1 -34 -9 -33 -30 -166 -97 -174 -89 -5 5 -18 43
-29 85 -12 42 -25 77 -30 77 -5 0 -34 -22 -64 -50 -49 -44 -58 -49 -87 -43
-51 10 -74 40 -69 90 1 18 66 57 126 76 32 11 54 25 60 39 6 14 23 25 43 29
19 4 39 12 45 19 10 10 5 11 -23 7 -19 -4 -45 -9 -57 -13 -17 -5 -23 -2 -23
10 0 9 5 16 11 16 5 0 7 5 3 12 -4 6 -3 8 4 4 9 -5 55 8 72 22 3 2 -8 14 -23
26 -17 13 -30 35 -32 51 -3 28 -38 64 -62 65 -7 0 -24 18 -38 40 -22 36 -30
40 -64 40 -22 0 -68 -9 -103 -20 -77 -24 -78 -24 -78 -2 0 10 -6 24 -12 30 -7
7 -14 34 -14 60 -1 26 -9 103 -18 172 -9 69 -18 183 -19 253 -2 122 -1 129 20
149 27 26 43 76 43 139 0 37 -5 50 -30 74 -22 21 -30 38 -30 62 0 18 5 33 10
33 11 0 13 70 4 117 -3 16 -15 33 -27 39 -12 5 -21 17 -21 26 1 10 -1 16 -5
13 -4 -2 -16 10 -26 28 -10 18 -27 42 -38 54 l-20 22 25 10 c14 5 36 7 47 4
l22 -6 -20 35 c-24 39 -81 97 -81 81 0 -6 11 -21 24 -34 14 -13 22 -27 20 -31
-5 -8 -15 -2 -66 45 -17 15 -41 27 -53 27 -13 0 -29 7 -36 16 -11 14 -11 18 4
29 15 11 8 17 -57 49 -41 20 -105 48 -142 62 -38 14 -88 35 -113 46 -59 27
-123 49 -128 45 -3 -4 117 -65 170 -86 15 -6 27 -15 27 -21 0 -5 10 -10 23
-10 20 -1 20 -2 4 -11 -13 -7 -38 -4 -95 12 -42 12 -93 25 -112 30 -68 18
-255 39 -334 39 -81 -1 -243 -21 -263 -33 -6 -4 -39 -11 -74 -16 -35 -5 -75
-14 -89 -20 -71 -30 -338 -222 -339 -243 -1 -4 -12 -32 -26 -63 -14 -30 -35
-86 -46 -123 -12 -37 -26 -76 -33 -87 -21 -34 -25 -66 -15 -116 9 -39 15 -49
40 -58 16 -5 29 -13 29 -17 0 -3 -23 -36 -52 -71 l-52 -66 21 -36 c12 -20 33
-57 47 -83 30 -54 66 -83 94 -74 33 11 70 -14 83 -53 6 -20 31 -78 56 -129 25
-52 48 -118 53 -150 8 -50 21 -123 36 -202 2 -14 5 -31 6 -38 1 -6 4 -10 6 -7
6 5 26 -26 43 -67 6 -16 15 -28 19 -28 4 0 11 -11 14 -25 4 -14 12 -25 20 -25
7 0 20 -8 30 -19 10 -11 37 -21 67 -24 28 -4 56 -10 63 -15 16 -13 121 -32
172 -32 34 0 49 -6 69 -27 14 -15 25 -33 25 -39 0 -5 -37 -18 -82 -28 -46 -10
-98 -28 -115 -40 -48 -31 -44 -59 19 -117 29 -26 54 -47 57 -47 22 2 30 -7 41
-48 9 -31 24 -53 46 -71 19 -14 34 -29 34 -33 0 -10 -86 -28 -150 -32 l-44 -3
-51 -221 c-57 -246 -49 -231 -181 -365 -46 -47 -84 -91 -84 -96 0 -6 -7 -16
-15 -23 -23 -19 -19 -26 22 -38 31 -9 47 -8 90 5 l52 16 11 63 c14 81 33 131
22 59 -4 -27 -7 -67 -6 -87 0 -22 -3 -32 -8 -25 -6 9 -8 9 -9 0 -4 -33 -20
-64 -29 -58 -5 3 -23 -3 -42 -14 -39 -23 -104 -31 -100 -13 1 7 -5 12 -13 12
-11 0 -13 -10 -9 -44 3 -29 -1 -58 -11 -82 -15 -37 -34 -132 -41 -214 -3 -31
-12 -51 -28 -65 -13 -11 -29 -40 -35 -63 -43 -152 6 151 66 408 15 63 26 126
24 140 -1 14 5 56 14 94 9 37 14 71 11 73 -10 11 -56 -47 -56 -71 0 -27 -52
-150 -68 -160 -6 -4 -57 -18 -114 -33 -133 -33 -183 -76 -128 -111 34 -21 25
-43 -16 -40 -24 2 -39 -2 -42 -10 -3 -11 0 -12 18 -2 20 11 21 10 10 -9 -12
-24 -47 -28 -52 -6 -2 11 -7 12 -18 4 -11 -8 -12 -12 -2 -16 7 -2 18 -11 26
-18 7 -8 16 -11 20 -8 3 4 6 2 6 -3 0 -5 -9 -17 -20 -27 -12 -10 -20 -29 -20
-47 0 -31 -52 -203 -70 -230 -15 -22 -12 -6 9 63 31 97 35 128 19 122 -24 -9
-71 13 -64 30 3 8 1 15 -4 15 -6 0 -20 10 -31 21 -17 17 -19 23 -8 31 10 6 3
8 -21 6 -28 -2 -35 -7 -33 -23 1 -11 -3 -23 -9 -26 -7 -5 -3 -20 10 -45 11
-22 33 -65 48 -97 15 -33 33 -61 40 -64 17 -6 26 -33 11 -33 -7 0 -36 18 -66
40 -57 43 -95 53 -84 23 7 -17 6 -17 -11 -1 -21 22 -24 22 -71 2 l-38 -16 6
189 c6 204 44 580 78 763 24 128 45 187 90 243 17 20 44 63 60 93 25 49 29 66
29 140 l0 84 30 0 c38 0 90 21 112 46 9 11 23 37 30 59 9 28 20 41 37 45 32 7
53 66 44 126 -6 44 -5 45 18 39 13 -3 30 -1 37 3 28 18 42 148 20 170 -7 7
-16 45 -20 85 -5 40 -10 86 -12 102 -2 17 -18 68 -36 113 -25 65 -39 88 -64
103 -17 10 -35 19 -41 18 -5 0 -4 -3 3 -6 6 -2 9 -10 6 -15 -5 -7 -2 -8 6 -3
11 7 29 -9 30 -27 0 -11 -48 -10 -55 1 -3 6 -27 7 -53 4 -37 -4 -57 -1 -87 16
-22 11 -36 21 -32 21 4 0 -2 9 -14 21 -14 14 -29 19 -45 16 -13 -2 -21 0 -17
6 6 10 134 1 184 -13 27 -8 29 -7 29 17 0 15 10 33 25 45 14 11 25 30 25 42 0
26 -25 64 -36 53 -4 -4 -2 -7 4 -7 7 0 12 -7 12 -15 0 -19 -21 -19 -65 -1 -23
10 -35 22 -35 34 0 11 -6 22 -13 25 -7 2 -21 30 -30 61 -19 60 -40 78 -78 69
-47 -11 -58 -30 -52 -89 4 -37 2 -54 -6 -54 -6 0 -14 0 -18 -1 -4 0 -21 53
-38 118 -29 116 -30 118 -60 121 -16 2 -39 -4 -49 -11 -20 -14 -20 -16 3 -123
12 -60 29 -114 37 -120 21 -16 17 -26 -5 -14 -11 5 -24 10 -30 10 -14 0 -38
-38 -47 -75 l-7 -30 27 27 c15 15 40 29 55 33 15 3 42 15 61 27 19 12 44 23
55 24 11 1 39 9 63 18 43 16 92 13 92 -7 0 -6 -3 -7 -7 -3 -4 3 -13 -4 -20
-16 -7 -13 -12 -17 -13 -10 0 26 -70 8 -150 -39 -20 -12 -26 -14 -85 -31 l-50
-15 -97 -194 -98 -193 13 -166 c6 -91 12 -253 12 -360 l-1 -195 -37 -125 c-21
-69 -49 -159 -63 -200 -13 -41 -31 -95 -39 -120 -31 -100 -48 -147 -65 -185
-36 -78 -70 -167 -70 -181 0 -9 -7 -23 -16 -31 -10 -10 -13 -25 -9 -40 4 -18
2 -23 -6 -17 -9 5 -10 2 -6 -9 3 -10 3 -17 -1 -17 -4 0 -8 -9 -9 -20 -1 -11
-11 -32 -22 -46 -12 -15 -21 -37 -21 -50 0 -13 -5 -24 -11 -24 -6 0 -9 -9 -6
-20 3 -13 0 -20 -9 -20 -8 0 -11 -6 -8 -15 4 -8 1 -15 -5 -15 -6 0 -11 -13
-11 -29 0 -16 -4 -31 -9 -33 -6 -1 -12 -14 -14 -28 -2 -14 -8 -36 -14 -50 -6
-14 -15 -41 -21 -60 -6 -19 -22 -71 -36 -115 -13 -44 -27 -111 -31 -150 -7
-80 -19 -118 -50 -160 -23 -31 -26 -51 -41 -275 -6 -89 -7 -84 54 -282 45
-147 111 -251 186 -291 37 -20 55 -22 201 -21 163 0 293 19 408 58 52 17 77
20 77 9 0 -11 -57 -432 -80 -593 -11 -74 -21 -174 -22 -222 -2 -49 -6 -88 -9
-88 -6 0 -22 -154 -21 -202 1 -15 -3 -30 -8 -33 -6 -4 -10 -21 -10 -38 0 -18
-11 -97 -25 -176 -14 -78 -23 -146 -20 -151 2 -4 15 -8 27 -8 13 0 115 -7 228
-16 113 -9 234 -18 270 -20 147 -9 347 -26 370 -30 14 -3 104 -10 200 -16 195
-12 288 -24 304 -40 7 -7 -9 -8 -50 -5 -32 2 -108 7 -169 10 -125 7 -1135 80
-1325 95 -69 6 -260 22 -425 35 -165 14 -340 27 -390 30 -49 3 -126 10 -170
15 -44 6 -101 10 -126 10 -26 0 -49 4 -51 9 -4 11 -136 22 -143 11 -3 -4 -14
-6 -24 -3 -13 3 -24 -3 -34 -19 -17 -27 -137 -417 -137 -446 0 -11 19 -46 43
-78 36 -49 51 -61 88 -71 24 -7 314 -37 644 -68 330 -31 629 -59 665 -63 l65
-7 -1 -37 c-1 -42 9 -41 36 5 15 24 20 27 25 15 4 -9 -15 -68 -40 -133 -65
-165 -110 -323 -124 -440 -13 -110 -36 -240 -46 -267 -7 -17 94 -18 2039 -18
2016 0 2046 0 2046 19 0 11 -5 32 -11 48 -6 15 -14 107 -19 203 -6 144 -5 180
7 203 14 28 14 28 91 21 42 -4 80 -11 83 -17 4 -5 16 -6 28 -2 24 7 111 -4
111 -14 0 -4 -15 -6 -32 -5 -18 2 -25 1 -15 -2 38 -12 6 -54 -42 -54 -12 0
-21 -6 -21 -13 0 -8 -18 -20 -40 -27 -22 -7 -40 -19 -40 -27 0 -7 -4 -13 -9
-13 -19 0 -71 -65 -71 -87 0 -14 -6 -23 -15 -23 -11 0 -15 -11 -15 -42 0 -30
3 -39 9 -28 6 8 7 18 5 22 -3 4 0 8 5 8 14 0 14 -26 0 -52 -6 -12 -8 -39 -4
-69 l7 -49 647 0 647 0 -1 78 c0 70 2 77 20 80 16 2 25 -7 38 -36 9 -21 17
-46 17 -55 0 -9 5 -28 12 -42 l11 -25 869 0 868 0 0 3070 0 3069 -41 12 c-28
9 -46 10 -57 3 -23 -15 -26 -32 -5 -38 23 -7 -245 3 -274 11 -19 4 -23 12 -23
43 0 21 -4 40 -9 42 -4 2 -11 24 -15 50 l-7 48 48 -1 c70 -1 250 -23 259 -31
4 -5 34 -8 66 -8 l58 0 0 190 0 190 -27 5 c-16 3 -45 11 -65 17 -20 6 -47 8
-60 4 -13 -3 -94 -1 -180 6 l-157 11 -10 46 c-20 92 -20 130 -2 136 21 6 257
-18 421 -44 36 -6 68 -11 73 -11 4 0 7 88 7 195 l0 195 -64 0 c-36 0 -76 4
-90 10 -14 5 -81 12 -148 15 -216 10 -270 14 -276 20 -3 3 -10 33 -14 68 -5
34 -11 74 -13 90 l-5 27 68 -1 c37 0 99 -4 137 -9 135 -18 330 -39 368 -40
l37 0 0 174 0 174 -82 6 c-46 4 -119 11 -163 16 -44 5 -144 15 -223 20 -178
14 -201 21 -204 63 0 18 -2 43 -2 57 -1 14 -5 30 -8 35 -21 35 77 49 182 27
30 -7 151 -23 268 -36 117 -14 217 -28 222 -31 6 -4 10 157 10 443 l0 449
-152 7 c-84 4 -207 13 -273 21 -66 8 -176 19 -243 24 -82 6 -128 13 -137 22
-15 16 -39 138 -30 147 7 7 146 5 200 -3 17 -2 75 -9 131 -15 166 -17 419 -60
422 -70 2 -6 9 -10 16 -10 7 0 21 -6 32 -14 19 -15 19 -15 -1 -30 -20 -14 -20
-15 5 -24 l25 -9 3 220 c1 121 0 222 -2 225 -3 2 -96 10 -208 18 -112 7 -219
16 -238 20 -19 3 -62 8 -95 10 -166 9 -336 29 -345 39 -6 7 -15 39 -21 71 -9
51 -9 59 7 71 9 7 20 11 23 9 3 -2 71 -9 151 -16 141 -11 358 -38 372 -46 3
-2 65 -13 137 -24 72 -11 147 -26 167 -35 20 -8 40 -15 45 -15 5 0 9 87 9 194
l0 194 -47 6 c-27 3 -120 10 -208 15 -143 9 -315 23 -604 51 -53 5 -100 15
-107 22 -6 7 -15 38 -18 69 -10 84 -7 85 171 65 82 -10 173 -21 203 -25 321
-47 428 -66 418 -73 -7 -4 14 -6 47 -4 33 2 43 1 23 -1 -68 -8 -40 -23 42 -23
l79 0 1 503 0 504 -26 12 c-22 10 -33 8 -68 -8 -40 -20 -41 -22 -38 -63 3 -35
-1 -47 -21 -66 -15 -14 -38 -24 -58 -24 -36 -2 -205 12 -484 37 -93 9 -195 18
-225 20 -150 11 -167 21 -177 103 -5 43 -3 53 11 58 9 4 76 -1 149 -11 73 -9
170 -21 217 -26 47 -5 144 -20 215 -34 197 -36 223 -38 287 -24 32 7 58 17 58
21 0 4 7 8 15 8 9 0 45 14 80 32 l65 31 0 1194 0 1193 -1369 0 c-935 0 -1370
-3 -1373 -10 -2 -6 -22 -17 -45 -25 -38 -13 -64 -12 -269 10 -225 25 -233 25
-1163 25 l-937 0 -17 -29z m3898 -151 c159 -26 242 -42 257 -51 10 -5 26 -9
35 -10 10 0 2 -6 -17 -13 l-35 -13 28 -7 c15 -3 38 -4 52 0 14 3 25 2 25 -4 0
-12 -48 -22 -105 -22 -32 0 -52 7 -74 26 -21 17 -37 24 -49 19 -14 -6 -12 -9
13 -21 27 -13 18 -14 -101 -9 -71 2 -138 7 -147 11 -10 3 -20 18 -23 33 -4 14
-11 31 -16 37 -4 6 -5 19 -2 29 7 18 16 18 159 -5z m50 -446 c88 -17 106 -20
215 -35 198 -27 350 -67 350 -91 0 -5 -13 -15 -30 -21 -16 -6 -30 -15 -30 -19
0 -11 -134 -10 -183 2 -23 6 -126 16 -230 23 -184 13 -188 14 -217 42 -34 32
-47 79 -30 100 16 19 54 19 155 -1z m110 -434 c151 -19 380 -57 405 -67 14 -6
46 -13 72 -17 28 -4 52 -14 58 -24 8 -12 13 -14 16 -4 6 14 84 17 84 3 0 -5 9
-12 19 -16 12 -3 18 -12 15 -20 -4 -9 4 -15 28 -17 l33 -4 -28 -12 c-18 -8
-40 -9 -65 -3 -20 5 -29 9 -19 10 9 1 17 8 17 16 0 21 -42 19 -66 -4 -19 -17
-34 -18 -170 -14 -82 2 -177 10 -212 18 -35 8 -94 15 -132 15 -60 0 -98 5
-197 25 -27 6 -67 86 -58 116 8 24 -2 24 200 -1z m70 -434 c66 -9 152 -22 190
-27 39 -6 111 -16 160 -23 50 -7 103 -18 119 -25 40 -16 176 -18 214 -2 27 12
35 11 57 -3 13 -9 35 -17 47 -17 17 -1 18 -3 6 -6 -20 -5 -25 -33 -7 -33 16 0
-53 -46 -82 -56 -41 -13 -127 -2 -140 18 -4 6 -14 6 -28 -2 -23 -12 -234 0
-350 21 -30 5 -76 9 -102 9 -80 0 -244 22 -262 34 -21 16 -36 85 -25 115 9 26
-3 26 203 -3z m86 -447 c79 -11 187 -27 239 -34 52 -8 139 -23 193 -35 129
-26 225 -26 274 0 21 11 51 19 68 19 29 -2 29 -2 3 -6 -23 -4 -26 -9 -30 -49
-2 -24 1 -45 6 -47 5 -2 6 -9 2 -15 -4 -7 -16 -10 -26 -7 -11 4 -22 0 -27 -10
-5 -8 -22 -16 -39 -16 -46 -2 -384 20 -392 25 -4 2 -97 11 -207 21 -191 16
-254 29 -271 57 -11 18 -23 90 -17 105 7 18 55 16 224 -8z m284 -945 c94 -13
221 -32 283 -43 120 -21 230 -28 275 -16 17 5 27 3 27 -4 0 -6 7 -8 15 -5 12
5 15 -4 15 -45 0 -47 -2 -52 -32 -67 -27 -14 -45 -15 -137 -5 -58 6 -153 13
-211 16 -58 4 -125 10 -150 15 -25 5 -117 14 -205 21 -188 14 -210 24 -221 96
-3 23 -11 43 -16 43 -6 0 -5 7 3 16 15 19 95 14 354 -22z m92 -1964 c39 -5 97
-13 130 -19 32 -6 119 -15 193 -22 158 -13 192 -18 184 -30 -3 -5 1 -12 9 -14
8 -4 14 -24 16 -52 1 -26 4 -50 7 -54 2 -4 -14 -10 -36 -14 -41 -7 -117 -2
-220 15 -30 5 -113 12 -185 15 -71 3 -158 10 -193 16 -70 12 -71 14 -75 109
l-2 55 35 6 c19 3 42 4 50 2 8 -3 47 -9 87 -13z m-3973 -1111 c38 -30 55 -79
67 -192 12 -116 4 -148 -45 -196 -39 -38 -78 -48 -97 -24 -10 11 -10 14 -1 9
6 -4 12 -3 12 3 0 14 -34 71 -43 71 -4 0 8 14 28 31 29 26 38 29 50 19 9 -8
13 -21 9 -32 -5 -16 -1 -18 21 -14 39 7 40 11 27 62 -15 57 -57 120 -85 129
-22 8 -22 8 2 12 20 4 22 9 17 36 l-6 32 20 -25 c11 -14 31 -55 46 -92 14 -38
28 -68 31 -68 8 0 -7 138 -17 165 -13 34 -39 55 -68 56 -15 0 -22 3 -15 5 7 3
9 12 6 20 -8 20 10 17 41 -7z m76 -1348 c0 -5 20 -19 45 -31 37 -18 55 -21 98
-15 28 4 57 11 62 16 6 4 31 11 55 14 l45 7 -29 -16 c-15 -9 -35 -16 -43 -16
-8 0 -12 -4 -9 -9 8 -12 -42 -43 -56 -35 -7 4 -8 3 -4 -5 6 -8 0 -10 -18 -5
-17 4 -26 2 -26 -6 0 -6 5 -8 10 -5 6 3 10 1 10 -4 0 -6 -21 -12 -47 -12 -75
-3 -81 -4 -89 -11 -4 -5 -20 -8 -36 -8 -21 0 -28 5 -28 20 0 11 -3 20 -7 21
-32 3 -55 11 -73 26 -20 17 -19 18 47 50 72 33 93 39 93 24z m1894 -651 c43
-84 86 -196 86 -223 0 -2 -10 -4 -22 -3 -16 1 -30 15 -50 54 -16 28 -24 52
-18 52 12 0 3 27 -21 60 -9 14 -25 52 -34 85 -9 33 -25 76 -36 96 -10 20 -19
41 -19 45 1 23 66 -71 114 -166z m-2779 -640 c13 0 25 5 27 12 2 6 10 9 16 7
9 -3 4 -17 -14 -46 -30 -45 -73 -63 -152 -63 -21 0 -79 -13 -128 -29 -156 -51
-184 -55 -206 -33 -17 17 -18 24 -7 68 17 69 32 82 24 19 -4 -27 -8 -54 -9
-60 -2 -16 15 -11 109 35 50 24 97 45 105 46 30 3 105 26 117 35 7 6 13 6 17
1 3 -5 20 -8 38 -7 26 2 32 7 31 21 -1 11 0 13 3 7 3 -7 16 -13 29 -13z m-372
-225 c37 -7 71 -15 74 -19 3 -3 14 -24 24 -46 l18 -40 -29 -15 c-17 -9 -33
-14 -37 -13 -5 2 -12 -7 -18 -19 -5 -13 -13 -23 -17 -23 -6 0 -68 95 -68 106
0 3 -11 20 -24 37 -40 55 -42 61 -15 53 13 -5 55 -14 92 -21z m3409 -131 c39
-27 50 -52 83 -184 9 -36 21 -71 27 -77 7 -9 7 -13 -2 -13 -17 0 -87 75 -82
89 2 6 -1 11 -8 11 -6 0 -8 4 -5 10 3 5 -1 22 -8 37 -8 15 -20 52 -28 81 -7
28 -16 52 -21 52 -4 0 -8 5 -8 10 0 16 11 12 52 -16z m-3379 -107 c-3 -12 -15
-42 -28 -67 -13 -25 -30 -64 -38 -87 -14 -40 -13 -43 3 -43 29 0 30 -12 5 -32
-35 -27 -71 -95 -79 -146 -3 -23 -17 -64 -30 -90 -62 -124 -73 -151 -65 -164
6 -9 9 -8 15 5 8 23 31 22 44 -2 15 -29 12 -41 -10 -41 -12 0 -24 -9 -29 -23
-5 -13 -21 -31 -36 -41 -15 -10 -36 -39 -47 -64 -12 -26 -37 -75 -57 -109 -34
-58 -38 -63 -72 -63 -20 0 -58 -7 -85 -15 -27 -8 -50 -15 -51 -15 -7 0 -2 37
5 45 14 16 50 126 56 173 4 24 24 80 45 125 20 45 46 105 56 132 10 28 20 52
23 55 2 3 23 -17 47 -44 48 -55 61 -54 86 6 11 28 11 33 -7 47 -10 9 -19 25
-18 36 3 47 14 61 59 73 25 7 45 17 45 23 0 6 -15 31 -32 57 -18 26 -33 49
-34 52 -2 13 -18 46 -24 50 -4 3 -10 20 -13 37 -6 31 -5 32 13 21 11 -7 20
-15 20 -19 0 -3 21 -38 47 -78 l46 -73 43 113 c24 63 43 124 43 137 1 13 5 21
10 18 4 -3 13 6 20 20 13 30 31 24 24 -9z m3517 -2063 c9 -25 9 -39 2 -46 -6
-6 -8 -23 -5 -39 5 -26 3 -28 -33 -34 -22 -4 -45 -8 -51 -10 -15 -5 -17 -25
-3 -25 6 0 10 -9 10 -19 0 -11 13 -30 29 -43 16 -13 34 -34 42 -48 16 -32 13
-187 -6 -255 -7 -27 -17 -84 -22 -125 -7 -74 -8 -74 -14 -30 -5 32 -7 17 -6
-50 1 -89 0 -97 -24 -122 -16 -17 -37 -28 -53 -28 -16 0 -26 -5 -26 -15 0 -8
7 -15 16 -15 12 0 15 -8 12 -32 -3 -31 -1 -33 30 -36 31 -3 45 -20 20 -24 -7
0 7 -4 32 -8 45 -7 45 -7 -17 -8 -39 -1 -63 2 -65 10 -3 9 -15 9 -51 0 -26 -7
-57 -10 -70 -7 -12 3 -62 7 -112 10 -305 13 -888 54 -940 66 -51 11 179 3 397
-13 87 -6 161 -9 165 -5 3 4 12 60 19 125 12 105 13 109 9 33 -2 -51 0 -79 6
-70 6 10 9 10 9 2 0 -8 12 -13 29 -13 24 0 30 5 35 30 6 30 26 42 26 15 0 -8
12 -27 28 -42 l27 -28 -47 -3 c-34 -2 -48 -7 -48 -18 0 -15 23 -17 145 -14 52
1 63 4 82 28 26 31 29 57 8 69 -17 10 -35 116 -35 212 0 53 -4 70 -26 98 -27
36 -67 44 -104 21 -15 -10 -25 -10 -37 -2 -14 9 -21 7 -31 -5 -11 -14 -13 -9
-9 32 7 75 45 115 244 258 43 31 93 62 111 70 18 8 35 21 37 30 3 9 23 21 45
28 23 7 48 24 60 41 12 17 27 30 34 30 7 0 31 13 52 29 21 16 44 30 51 30 6 1
17 -15 23 -35z m-5754 -742 c-12 -20 -79 -260 -79 -281 1 -15 -2 -20 -7 -12
-5 9 -9 2 -12 -17 l-4 -30 75 -11 c99 -15 282 -31 347 -31 45 0 52 3 57 23 3
12 19 69 36 127 17 58 30 122 31 143 0 30 5 39 23 46 25 9 148 2 602 -34 176
-14 354 -27 395 -30 110 -8 401 -35 430 -40 14 -2 92 -11 173 -20 81 -9 159
-20 174 -26 l25 -9 -43 -43 c-24 -23 -51 -46 -60 -52 -98 -61 -169 -125 -195
-177 -13 -26 -24 -54 -24 -62 0 -29 50 -32 -1025 64 -479 42 -796 71 -930 85
-77 7 -171 17 -210 20 -38 3 -111 10 -161 16 -49 5 -108 11 -130 13 -21 2 -43
4 -47 5 -5 1 -5 6 -1 12 4 8 37 9 103 5 286 -19 268 -19 244 -1 -16 11 -23 27
-24 53 -1 20 -3 29 -6 19 -2 -9 -9 -15 -14 -11 -6 3 -19 -4 -30 -17 -15 -18
-19 -19 -19 -6 0 10 -7 17 -15 17 -10 0 -15 10 -15 34 0 38 18 96 30 96 4 0 6
10 3 21 -4 14 0 25 12 31 13 8 15 12 4 18 -9 6 -2 11 22 18 30 7 35 6 39 -12
4 -15 8 -17 14 -8 4 6 4 18 0 25 -5 8 -2 7 9 -2 19 -15 13 -29 -28 -63 -15
-13 -16 -18 -5 -18 8 0 33 25 55 55 45 61 58 69 86 55 14 -8 19 -7 19 1 0 7
12 10 30 7 17 -3 33 -1 36 4 3 4 7 8 10 8 3 0 3 -4 0 -8z m230 -124 c-3 -24
-8 -54 -11 -68 -3 -14 5 1 17 33 16 39 28 57 40 57 22 0 22 6 -3 -87 -22 -83
-33 -103 -55 -103 -9 0 -11 11 -8 38 l4 37 -13 -34 c-15 -39 -31 -48 -51 -31
-12 9 -12 15 0 38 8 15 14 33 14 41 0 8 8 38 17 68 13 40 21 53 36 53 17 0 19
-5 13 -42z m4384 -244 c30 -3 60 -6 67 -6 13 -1 -1 -35 -22 -53 -43 -36 -61
-195 -29 -270 8 -19 11 -35 8 -35 -4 0 -1 -7 6 -15 7 -9 15 -13 17 -11 3 3 15
1 27 -4 13 -4 117 -18 232 -29 153 -16 225 -19 269 -12 37 5 49 9 30 10 -26 2
-27 4 -10 11 13 6 15 9 5 9 -9 1 -11 4 -5 9 15 10 35 49 35 67 0 8 5 15 10 15
6 0 10 7 10 16 0 14 7 15 44 10 l44 -7 7 41 c4 22 11 38 16 34 5 -3 9 -1 9 5
0 5 -6 12 -12 15 -10 5 -10 7 0 12 6 3 12 14 12 25 0 24 26 25 39 1 5 -9 34
-26 64 -36 32 -11 57 -26 60 -35 2 -9 2 -42 -1 -74 l-4 -57 -45 0 c-48 0 -89
-17 -115 -49 -11 -13 -30 -21 -48 -21 -20 0 -29 -4 -24 -11 3 -6 27 -9 53 -8
52 4 156 -8 186 -21 11 -5 27 -11 35 -13 25 -8 -191 3 -255 13 -33 5 -112 12
-175 15 -63 3 -196 12 -295 20 -99 8 -243 19 -320 25 -326 24 -928 80 -935 87
-3 3 69 2 160 -2 262 -11 303 -12 333 -2 21 7 27 15 24 28 -6 23 22 61 94 127
73 68 105 92 118 92 6 0 11 5 11 10 0 6 7 10 15 10 8 0 15 6 15 14 0 33 98 70
160 60 14 -3 50 -7 80 -10z"/>
<path d="M16354 12629 c-30 -29 -54 -60 -54 -71 0 -26 38 -38 74 -23 24 10 37
10 69 -1 22 -8 64 -17 93 -20 47 -6 55 -4 78 19 32 32 34 77 5 103 -16 14 -40
20 -97 22 -43 2 -81 8 -86 13 -17 15 -25 11 -82 -42z"/>
<path d="M14787 11609 c-11 -6 -31 -36 -46 -67 -14 -32 -46 -92 -71 -134 -35
-59 -49 -76 -62 -72 -16 5 -18 -2 -18 -48 1 -53 21 -110 34 -90 3 5 14 8 25 5
17 -4 53 29 63 59 2 6 21 11 42 10 71 -3 98 63 93 223 -4 126 -12 142 -60 114z"/>
<path d="M16817 11230 c-27 -32 -22 -78 14 -111 17 -16 36 -29 43 -29 6 0 28
14 49 31 49 40 52 86 8 112 -40 23 -92 22 -114 -3z"/>
<path d="M17055 11208 c-50 -18 -58 -38 -28 -70 14 -14 22 -31 19 -37 -4 -6
-2 -11 3 -11 6 0 11 -15 11 -34 0 -36 13 -53 45 -57 38 -4 51 9 47 47 -3 22 1
41 11 52 19 21 30 63 20 78 -8 11 -79 45 -92 43 -3 0 -19 -5 -36 -11z"/>
<path d="M14765 11118 c-80 -153 -116 -208 -134 -208 -11 0 -20 -9 -23 -22 -5
-31 11 -128 22 -128 5 0 21 -11 36 -25 15 -14 31 -25 35 -25 5 0 17 18 26 39
16 38 56 61 69 40 9 -15 41 8 52 38 20 50 34 142 25 158 -5 9 -7 37 -3 63 3
28 0 66 -8 95 -11 38 -17 47 -36 47 -18 0 -30 -15 -61 -72z"/>
<path d="M17094 10746 c-10 -5 -26 -12 -34 -16 -24 -11 -23 -35 4 -75 15 -22
26 -52 26 -72 0 -26 6 -36 25 -45 14 -6 25 -15 25 -19 0 -16 34 -19 56 -4 21
13 24 23 24 75 0 35 4 60 10 60 6 0 14 10 19 23 19 51 -93 105 -155 73z"/>
<path d="M14800 10731 c0 -13 -6 -21 -16 -21 -10 0 -14 -6 -11 -15 4 -8 2 -17
-4 -21 -6 -3 -8 -12 -6 -18 11 -27 -69 -165 -101 -177 -9 -4 -21 -1 -25 5 -9
11 -6 -14 15 -126 11 -62 14 -68 37 -68 15 0 37 14 61 40 37 40 90 56 90 28 0
-7 13 2 29 21 31 37 41 84 41 208 0 105 -46 199 -75 153 -5 -8 -11 -7 -21 1
-11 9 -14 7 -14 -10z"/>
<path d="M9257 10592 c-9 -10 -22 -41 -28 -69 -15 -63 -6 -78 52 -88 69 -12
105 43 55 82 -13 10 -29 35 -37 56 -15 42 -19 44 -42 19z"/>
<path d="M10507 10353 c-11 -13 -15 -36 -13 -83 2 -58 5 -68 34 -97 18 -17 32
-40 32 -50 0 -15 2 -16 10 -3 5 8 10 30 10 47 0 27 5 34 26 39 34 9 166 -3
231 -20 50 -13 52 -13 73 9 25 27 20 61 -19 117 -33 48 -67 50 -120 7 -23 -18
-51 -31 -69 -31 -36 -1 -78 23 -87 51 -10 33 -82 42 -108 14z"/>
<path d="M9237 10335 c-20 -19 -20 -27 -7 -77 9 -33 7 -46 -19 -106 -16 -38
-26 -74 -22 -81 11 -17 78 -51 101 -51 24 0 91 33 108 52 8 11 8 26 -4 64 -10
33 -13 68 -9 105 8 74 -10 97 -81 105 -39 5 -54 3 -67 -11z"/>
<path d="M14826 10238 c-38 -77 -110 -193 -138 -221 -20 -20 -34 -77 -20 -86
12 -8 21 -144 10 -164 -5 -9 -4 -55 3 -109 5 -51 12 -167 15 -258 6 -198 9
-236 22 -233 10 2 22 -137 22 -269 0 -75 -3 -94 -23 -126 -32 -50 -38 -79 -20
-86 8 -4 18 -4 23 -1 11 7 19 -63 25 -203 l5 -114 -31 -25 c-16 -14 -28 -28
-25 -30 3 -3 36 -16 75 -29 38 -13 108 -41 157 -64 90 -42 112 -41 96 1 -5 13
-13 52 -17 86 -4 37 -15 73 -26 87 -29 37 -22 75 8 45 20 -20 28 32 25 166 -2
86 -8 145 -19 175 -11 33 -16 88 -17 205 -1 88 -5 165 -9 172 -4 6 -3 14 3 18
13 8 13 62 0 70 -5 3 -10 23 -10 43 0 20 -7 50 -15 66 -19 36 -19 69 1 126 11
31 13 59 8 90 -3 25 -7 77 -9 115 -1 39 -10 101 -19 138 -14 54 -16 77 -8 110
16 61 4 294 -17 337 -9 18 -21 35 -28 37 -7 3 -27 -28 -47 -69z"/>
<path d="M16500 10160 c-24 -25 -29 -36 -26 -74 6 -102 116 -141 146 -52 9 29
9 41 -4 63 -8 15 -23 43 -32 61 -22 40 -46 41 -84 2z"/>
<path d="M16821 9794 c-35 -40 -41 -54 -41 -91 0 -77 51 -153 115 -171 57 -17
140 35 131 82 -2 11 -10 54 -17 94 -16 94 -47 132 -107 132 -35 0 -45 -6 -81
-46z"/>
<path d="M17351 9789 c-25 -3 -86 -4 -137 -2 -77 3 -95 0 -114 -15 -21 -17
-22 -23 -16 -85 9 -83 30 -114 67 -97 19 9 34 8 66 -3 27 -9 45 -11 51 -5 10
10 82 -10 82 -23 0 -4 8 -9 18 -13 9 -3 25 -11 34 -18 15 -11 21 -9 40 9 20
21 21 25 9 75 -11 46 -11 59 2 91 15 35 15 37 -3 47 -10 5 -21 18 -24 28 -7
20 -10 21 -75 11z"/>
<path d="M6861 9779 c-13 -5 -32 -7 -42 -4 -13 5 -23 -6 -43 -44 -30 -61 -77
-113 -136 -154 -42 -28 -71 -54 -185 -164 -26 -25 -57 -44 -77 -48 -18 -4 -49
-20 -68 -37 -19 -17 -51 -41 -70 -55 -19 -13 -50 -35 -69 -48 -19 -14 -46 -25
-60 -25 -23 0 -29 -6 -40 -45 -25 -84 -93 -115 -178 -80 -52 22 -70 19 -126
-21 -28 -20 -73 -44 -101 -53 -44 -14 -53 -22 -72 -61 -32 -66 -152 -170 -197
-170 -18 0 -57 -54 -57 -81 0 -27 -47 -80 -125 -140 -83 -63 -142 -87 -174
-69 -12 6 -54 8 -108 4 l-88 -6 -61 41 c-70 46 -89 49 -141 21 -72 -38 -164
-16 -197 47 -10 21 -12 40 -6 73 5 25 9 51 10 57 1 28 -46 43 -155 48 -91 5
-115 9 -142 28 -30 20 -33 26 -33 75 0 39 -4 54 -16 59 -19 7 -101 -12 -144
-33 -16 -8 -53 -17 -82 -20 -29 -3 -80 -12 -113 -20 -70 -16 -277 -13 -390 6
-38 6 -158 12 -265 13 -143 2 -218 7 -280 20 -47 10 -134 19 -195 21 -60 2
-128 8 -150 14 -46 12 -266 34 -273 27 -7 -7 39 -95 93 -180 48 -76 55 -116
29 -154 -15 -21 -22 -23 -66 -17 -53 7 -98 24 -98 37 0 5 -14 24 -32 44 -59
68 -99 155 -102 222 -1 29 -5 56 -8 59 -24 23 -155 31 -183 10 -17 -12 -17
-15 -3 -35 9 -13 26 -29 37 -37 12 -9 21 -21 21 -29 0 -7 14 -27 30 -45 33
-36 37 -62 16 -130 l-13 -45 -54 0 c-30 1 -72 3 -93 5 -24 3 -40 1 -43 -7 -2
-6 35 -69 82 -139 89 -131 93 -140 82 -186 -11 -43 -32 -48 -145 -35 -56 6
-105 8 -109 4 -3 -4 3 -20 15 -35 12 -15 46 -64 76 -109 30 -44 60 -84 65 -88
19 -11 13 -100 -7 -118 -41 -37 -135 -11 -171 47 -13 20 -31 41 -42 46 -20 11
-22 7 -33 -72 -5 -43 9 -67 112 -192 52 -63 66 -87 70 -121 3 -35 0 -46 -19
-65 -25 -23 -28 -23 -229 -7 -16 1 -26 -4 -28 -14 -3 -19 72 -134 129 -196 32
-35 39 -50 39 -83 0 -28 -7 -47 -21 -61 -21 -21 -28 -22 -131 -16 -119 7 -132
2 -107 -45 13 -25 72 -100 132 -167 34 -37 39 -48 34 -78 -10 -58 -22 -66 -99
-61 -63 5 -76 10 -134 53 -21 15 -37 -8 -37 -54 0 -46 33 -94 124 -181 52 -49
58 -58 54 -89 -8 -60 -17 -64 -132 -57 l-102 7 -17 -36 c-9 -19 -14 -45 -10
-58 3 -13 44 -65 91 -115 78 -82 85 -93 85 -131 0 -57 -16 -63 -148 -55 l-108
7 -24 -77 c-14 -46 -20 -80 -14 -84 5 -5 28 -14 52 -21 35 -10 46 -19 58 -47
19 -44 9 -100 -22 -131 -30 -30 -96 -32 -117 -3 -12 17 -16 10 -46 -80 -34
-98 -35 -138 -5 -126 8 3 30 0 48 -8 90 -38 53 -206 -45 -206 -17 0 -34 8 -43
22 -19 26 -20 25 -41 -32 -51 -138 -73 -220 -145 -540 -12 -52 -35 -140 -51
-195 -16 -55 -34 -134 -40 -175 -13 -99 -35 -197 -54 -243 -8 -20 -31 -94 -51
-164 -20 -70 -47 -166 -60 -213 -13 -47 -31 -114 -39 -150 -17 -77 -61 -249
-105 -410 -17 -63 -40 -157 -51 -209 -11 -52 -22 -98 -25 -102 -2 -4 -28 -103
-58 -221 -30 -117 -72 -280 -94 -363 -22 -82 -61 -236 -86 -342 l-46 -192 0
-921 0 -920 5104 0 5104 0 6 43 c20 149 27 255 17 297 -16 69 -16 70 33 70 29
0 52 7 70 21 25 19 26 25 21 82 -12 153 -15 259 -7 255 15 -6 164 -172 187
-208 12 -19 25 -60 28 -92 9 -70 -6 -108 -40 -108 -57 0 -114 -22 -128 -51 -8
-15 -12 -34 -9 -42 3 -8 44 -27 92 -43 47 -16 93 -37 101 -46 17 -19 36 -25
26 -7 -5 7 11 9 47 7 59 -3 62 -9 43 -68 -7 -19 -15 -52 -18 -73 l-6 -37 166
0 c154 0 165 1 157 17 -5 10 -8 65 -6 122 3 87 0 106 -15 123 -14 16 -15 22
-5 36 40 55 52 80 52 108 0 17 7 38 17 45 9 8 22 29 30 46 13 33 10 61 -26
240 -4 24 -6 54 -3 68 7 41 -25 99 -83 149 -33 28 -63 66 -78 98 -34 71 -71
104 -142 127 -33 11 -61 18 -63 16 -2 -2 1 -12 7 -23 6 -12 11 -32 11 -46 0
-14 5 -46 12 -71 15 -56 6 -66 -30 -32 -16 15 -36 27 -45 27 -9 0 -24 14 -33
32 -19 36 -38 58 -52 58 -5 0 -9 6 -9 14 0 22 -24 76 -34 76 -5 0 -9 10 -9 23
0 13 -5 28 -11 34 -8 8 -7 17 5 35 9 12 20 23 24 23 4 0 7 20 7 44 0 27 5 46
13 49 9 3 10 7 2 17 -8 9 -7 20 1 38 8 18 8 30 0 45 -6 11 -9 27 -6 34 3 8 -6
39 -20 69 -15 33 -25 72 -25 101 0 26 -6 53 -12 60 -7 7 -14 26 -15 42 -2 29
-9 43 -18 35 -2 -3 -7 -32 -11 -65 -3 -32 -8 -65 -10 -73 -8 -26 -30 31 -37
92 -5 52 -3 60 19 83 19 18 25 33 23 59 -2 19 0 37 3 40 4 4 2 19 -3 33 -5 14
-6 28 -2 31 18 13 -5 84 -30 94 -11 4 -13 15 -7 48 8 43 30 69 59 69 9 0 34 9
57 19 44 20 87 81 109 156 12 37 15 40 45 37 44 -5 64 17 96 104 26 71 29 76
95 119 38 25 69 48 69 51 0 6 -19 -5 -90 -52 -41 -28 -42 -27 -64 71 -20 84
-35 125 -47 122 -5 -1 -20 12 -34 28 -20 24 -26 27 -34 16 -8 -12 -12 -12 -25
-2 -9 8 -16 19 -16 26 0 6 -12 18 -27 26 -44 23 -95 72 -109 105 -9 20 -40 49
-91 84 -73 50 -200 109 -233 110 -8 0 -23 7 -33 14 -16 12 -8 20 80 77 139 91
161 107 168 119 5 8 -9 15 -18 8 -2 -2 -15 5 -30 15 -16 10 -36 17 -45 16 -33
-3 -49 1 -50 14 -4 42 -11 74 -17 91 -5 11 -3 27 4 39 10 16 10 21 -1 28 -7 5
-19 9 -26 9 -7 0 -10 4 -7 10 3 6 -1 7 -9 4 -9 -3 -16 -1 -16 5 0 6 -9 11 -19
11 -10 0 -21 6 -24 13 -14 36 -11 325 3 342 4 5 10 21 13 35 2 14 4 8 4 -17 0
-25 6 -48 16 -58 15 -14 21 -41 20 -82 -1 -7 3 -10 8 -7 5 3 21 -4 35 -15 15
-12 36 -21 48 -21 11 0 33 -6 48 -14 25 -13 27 -13 38 15 7 16 18 29 25 29 7
0 18 7 25 15 11 13 10 18 -8 31 -16 11 -22 27 -24 66 -3 52 -25 78 -34 41 -5
-17 -9 -18 -40 -9 -19 6 -34 15 -34 20 0 11 52 56 65 56 10 0 18 13 49 76 8
17 22 34 31 37 8 4 15 15 15 26 0 26 -30 101 -40 101 -5 0 -6 10 -3 23 3 16 2
18 -5 9 -7 -11 -11 -10 -17 5 -5 10 -7 24 -6 31 1 6 -4 12 -11 12 -12 0 -43
43 -61 84 -4 11 -17 26 -27 33 -11 8 -20 22 -21 31 -1 10 -4 7 -8 -8 -7 -22
-9 -19 -14 20 -3 25 -9 122 -11 215 -3 94 -8 184 -11 200 -8 45 10 4 30 -70
10 -33 25 -81 36 -106 10 -25 20 -56 23 -70 15 -73 172 -517 219 -620 18 -41
40 -89 48 -106 7 -18 17 -33 20 -33 6 0 68 238 119 460 17 74 35 152 41 172
11 41 4 84 -18 109 -11 13 -12 29 -5 73 5 31 7 67 5 79 -2 12 3 51 11 85 17
75 13 91 -25 99 -16 3 -29 10 -29 15 0 12 137 184 207 260 29 32 53 60 53 62
0 3 -30 -6 -67 -19 -38 -13 -122 -39 -188 -59 -66 -20 -156 -48 -200 -61 -44
-13 -89 -25 -99 -27 -17 -3 -26 23 -78 232 -32 129 -65 273 -73 319 -8 46 -16
85 -18 87 -5 5 -17 -183 -17 -270 l-1 -61 -15 35 c-9 19 -29 70 -44 113 -20
55 -30 73 -34 60 -4 -10 -3 -19 2 -21 6 -2 7 -12 4 -24 -3 -14 -1 -19 6 -14 8
5 12 0 12 -13 0 -11 -4 -23 -10 -26 -5 -3 -10 -1 -10 5 0 6 -11 26 -23 43 -27
36 -123 278 -204 512 -18 52 -25 71 -50 125 -12 25 -34 78 -49 118 -15 40 -31
75 -36 78 -4 3 -8 16 -8 29 0 13 -4 27 -10 30 -5 3 -10 14 -10 24 0 10 -7 24
-15 31 -17 14 -21 35 -4 24 6 -3 19 -27 30 -53 50 -117 93 -200 101 -195 5 3
8 2 6 -3 -1 -4 9 -43 23 -85 18 -58 28 -78 41 -78 13 0 20 -11 24 -41 l7 -41
24 26 c13 14 27 26 31 26 4 0 8 -37 9 -83 3 -85 3 -86 -34 -30 -12 17 -12 17
-5 -2 4 -11 17 -38 28 -60 20 -38 58 -147 85 -242 12 -42 29 -58 29 -28 0 65
54 175 86 175 19 0 32 59 39 170 3 63 10 119 16 124 5 6 9 20 9 32 0 18 -10
26 -49 39 -27 9 -59 24 -71 35 l-21 19 20 11 c12 6 49 19 84 30 35 11 72 29
83 41 19 21 19 21 -1 18 -11 -2 -29 1 -40 7 -29 14 -60 11 -60 -6 0 -16 -35
-41 -47 -34 -11 7 -78 -24 -78 -36 0 -6 -5 -8 -10 -5 -6 4 -8 10 -5 15 3 5 1
11 -4 14 -15 9 6 68 30 89 26 21 68 22 95 3 13 -10 23 -11 31 -4 7 6 24 8 37
6 16 -3 23 -1 19 8 -2 6 -25 15 -49 19 -25 3 -59 13 -77 20 l-32 14 28 1 c26
0 40 20 15 20 -9 0 -8 3 2 10 10 6 24 3 46 -11 22 -13 35 -16 39 -9 9 14 -23
39 -50 40 -11 1 -14 4 -7 7 23 9 12 21 -79 93 -86 68 -90 73 -74 90 16 18 16
21 -6 60 l-23 41 67 67 68 68 147 12 c81 7 170 12 197 12 75 1 185 58 185 97
0 7 4 13 8 13 12 0 33 65 27 83 -4 8 0 21 7 28 10 9 12 26 7 63 -3 28 -2 61 2
74 5 13 9 34 9 48 0 15 6 24 16 24 8 0 12 5 9 10 -3 6 3 10 14 10 17 0 24 10
34 47 12 45 15 48 84 80 40 18 78 43 84 55 15 28 -3 84 -52 163 -21 32 -35 63
-32 68 3 5 7 32 9 60 3 28 10 54 16 58 10 7 13 165 3 249 -1 14 -3 56 -4 94
l-1 70 -47 40 c-25 23 -69 63 -97 90 -28 27 -67 55 -86 64 -19 8 -37 17 -40
21 -13 19 -180 96 -284 133 -62 22 -82 36 -53 39 15 2 -41 13 -173 35 -60 9
-162 17 -240 17 -121 1 -144 -2 -220 -27 -220 -72 -517 -253 -605 -368 -39
-51 -44 -67 -33 -98 6 -18 7 -35 2 -39 -5 -3 -10 -15 -10 -26 -1 -11 -9 -47
-18 -80 -20 -74 -20 -137 -1 -203 19 -63 34 -67 33 -10 0 25 5 46 14 52 19 14
29 54 15 59 -6 2 -7 14 -3 32 5 20 10 25 15 16 11 -17 33 44 26 73 -3 11 -1
28 5 36 9 13 11 13 20 0 8 -13 10 -12 10 3 0 9 4 17 10 17 5 0 9 8 8 18 -2 17
10 102 19 135 8 29 23 9 23 -31 0 -43 -30 -154 -54 -201 -10 -18 -15 -35 -12
-39 3 -3 7 -3 9 -1 1 2 17 23 34 45 22 28 28 45 22 51 -7 7 -6 17 3 32 14 23
34 28 41 9 6 -18 15 -7 21 24 6 34 52 107 85 136 64 56 173 116 187 104 4 -4
4 -2 1 4 -4 7 10 18 34 27 28 11 39 12 36 4 -2 -7 -64 -66 -138 -131 -278
-248 -356 -346 -403 -505 -30 -101 -12 -250 28 -235 19 7 33 -21 42 -84 6 -49
5 -52 -15 -52 -17 0 -21 -6 -21 -29 0 -50 49 -52 53 -2 1 21 2 21 14 5 7 -10
13 -22 13 -26 0 -5 12 -6 28 -3 l27 5 -29 -11 c-16 -7 -49 -33 -73 -58 -35
-37 -43 -51 -38 -71 6 -25 51 -69 71 -70 27 -1 277 -283 384 -434 8 -12 18
-22 22 -24 4 -2 4 -10 1 -19 -4 -10 -2 -14 4 -10 6 4 19 -3 29 -16 l19 -22
-24 20 c-13 11 -25 19 -27 18 -11 -7 -25 -2 -23 10 0 6 -2 23 -6 35 -6 18 -10
20 -16 10 -6 -9 -9 -7 -9 10 0 13 -6 22 -15 22 -8 0 -14 3 -13 8 4 11 -53 82
-62 77 -5 -3 -6 5 -2 17 3 14 2 19 -6 14 -7 -4 -12 -3 -12 3 0 5 -6 16 -13 23
-7 7 -23 27 -35 43 -44 58 -158 168 -213 205 -31 21 -63 50 -73 64 -9 14 -22
26 -28 26 -6 0 -2 -11 10 -23 13 -13 39 -49 60 -79 20 -31 69 -100 108 -154
40 -55 84 -123 98 -151 14 -29 30 -53 35 -53 11 0 141 -132 141 -142 0 -17
-26 -7 -44 17 -23 31 -50 34 -41 5 3 -11 2 -28 -4 -37 -9 -16 -11 -15 -12 7
l-1 25 -7 -24 c-6 -21 -10 -15 -26 40 -38 128 -74 199 -149 297 -157 202 -199
237 -294 248 -67 8 -77 8 -120 -2 -19 -4 -21 -8 -12 -19 6 -8 9 -18 6 -24 -3
-5 7 -12 22 -16 30 -6 72 -53 72 -79 0 -9 11 -18 25 -22 17 -4 32 -21 49 -60
14 -30 30 -54 35 -54 6 0 11 -7 11 -15 0 -16 25 -60 47 -83 7 -7 13 -23 13
-34 0 -12 6 -29 14 -37 15 -18 36 -76 36 -100 -1 -14 -2 -14 -13 -1 -7 8 -25
22 -41 30 -15 8 -32 24 -37 35 -4 11 -8 14 -8 7 -1 -7 -5 -10 -11 -7 -5 3 -10
-3 -10 -15 0 -21 33 -58 77 -87 21 -14 73 -95 73 -114 0 -5 -7 -9 -15 -9 -8 0
-14 6 -12 13 1 6 -4 11 -10 10 -7 -2 -13 3 -13 10 0 6 -19 29 -41 51 -53 49
-69 80 -70 136 -1 43 -1 44 -11 17 -8 -22 -6 -39 7 -73 9 -25 15 -51 12 -58
-3 -8 -2 -27 3 -43 l8 -28 3 35 c1 25 3 28 6 13 2 -13 8 -23 13 -23 5 0 5 -13
0 -29 -4 -15 -4 -35 1 -42 5 -8 9 -24 9 -36 0 -15 6 -23 18 -23 22 -1 44 -18
65 -51 18 -27 69 -190 62 -197 -2 -3 -16 22 -30 53 -16 37 -46 78 -80 112 -31
29 -58 53 -60 53 -3 0 -5 -14 -5 -31 0 -17 -4 -28 -10 -24 -5 3 -10 30 -10 58
0 29 -7 104 -16 167 -9 63 -17 131 -19 150 -4 58 -41 183 -66 225 -24 41 -125
145 -141 145 -13 0 -10 -10 12 -37 28 -36 25 -46 -10 -28 -39 20 -44 19 -26
-7 20 -29 20 -48 0 -48 -10 0 -14 5 -10 15 4 10 -2 19 -15 23 -11 5 -20 12
-19 17 1 5 -4 11 -10 13 -8 3 -10 -3 -7 -14 3 -11 9 -50 12 -89 7 -77 -8 -72
-19 7 -6 40 -11 48 -36 57 -19 6 -30 17 -29 28 0 10 3 13 6 6 2 -7 14 -13 26
-13 20 0 20 1 -4 27 -13 15 -16 21 -6 14 9 -7 17 -10 17 -5 -1 16 -44 40 -92
52 -71 18 -263 14 -323 -7 -27 -9 -49 -22 -47 -29 1 -7 -3 -12 -9 -12 -17 0
-173 -155 -232 -230 -67 -86 -67 -86 -67 -73 0 15 82 114 174 211 l69 73 -74
-41 c-41 -23 -81 -50 -90 -60 -9 -10 -43 -37 -75 -60 -32 -22 -96 -75 -142
-117 -66 -60 -95 -96 -144 -179 -33 -57 -62 -104 -64 -104 -3 0 0 9 6 19 5 11
10 29 10 40 0 11 8 22 18 24 16 4 16 5 0 6 -10 0 -18 6 -18 13 0 17 255 263
345 332 44 34 100 72 125 85 25 13 59 34 75 46 38 28 123 72 155 81 14 3 51
26 83 50 33 24 65 44 72 44 7 0 15 21 19 56 8 67 26 105 63 132 l28 21 -27 25
c-37 35 -41 67 -24 180 15 101 40 151 87 177 20 10 19 12 -18 44 l-38 33 1 83
c1 125 9 155 57 206 28 31 38 48 29 51 -23 7 -50 42 -56 72 -5 28 1 142 10
188 5 24 66 92 83 92 21 0 11 24 -24 60 l-35 36 9 144 c5 80 7 147 4 150 -8 9
-33 -33 -33 -57 0 -46 -56 -52 -137 -14 -21 10 -56 24 -78 31 -22 7 -54 19
-72 27 -17 7 -36 13 -42 13 -7 0 -27 15 -45 34 -39 38 -57 39 -106 9 -39 -26
-64 -23 -127 13 -50 29 -73 59 -73 96 0 29 -5 31 -52 28 -14 -1 -29 3 -33 9
-3 6 -19 11 -34 11 -16 0 -47 6 -69 14 -23 8 -58 15 -79 14 -72 -1 -238 63
-281 107 -17 19 -29 23 -52 18 -22 -4 -47 3 -93 25 -83 41 -167 72 -192 71
-11 0 -31 -5 -44 -10z m1244 -809 c14 -16 31 -20 79 -20 45 0 68 -6 86 -20 14
-11 29 -20 35 -20 5 0 28 -7 51 -16 51 -19 62 -48 38 -98 -26 -54 -101 -77
-130 -40 -6 8 -20 14 -31 14 -11 0 -26 7 -33 15 -7 8 -19 15 -27 15 -8 0 -28
13 -44 29 -16 16 -45 35 -64 41 -37 12 -46 38 -21 59 8 7 17 23 20 36 8 30 17
31 41 5z m1536 -174 c-12 -19 -21 -50 -21 -74 0 -78 53 -202 86 -202 23 0 16
22 -27 89 -32 50 -38 65 -28 77 6 8 18 14 26 14 9 0 13 6 10 15 -7 16 50 -11
93 -45 l25 -20 -29 10 c-19 7 -33 7 -39 1 -5 -5 -16 -7 -23 -4 -18 7 -18 -27
0 -71 9 -21 24 -37 44 -44 20 -7 33 -21 41 -43 9 -27 9 -31 -1 -21 -16 16 -28
15 -28 -1 0 -21 30 -77 41 -77 5 0 9 -4 9 -9 0 -6 -12 -6 -32 0 -17 5 -34 6
-37 3 -3 -2 -12 10 -21 28 -8 18 -25 37 -37 44 -13 6 -20 14 -16 17 3 4 1 7
-5 7 -7 0 -12 7 -12 16 0 8 -4 13 -9 10 -12 -8 -30 40 -34 87 -2 20 -9 43 -15
49 -21 21 -14 88 13 135 14 23 31 43 36 43 6 0 1 -15 -10 -34z m-1467 -101
c41 -19 83 -35 92 -35 26 0 84 -40 78 -54 -3 -7 1 -23 8 -37 15 -29 9 -182 -7
-198 -18 -18 -264 56 -310 92 -5 4 -19 14 -30 22 -18 12 -19 16 -6 47 7 18 19
65 25 103 6 39 15 76 19 83 14 20 53 14 131 -23z m2269 -315 c19 0 98 -42 104
-55 3 -8 11 -15 19 -15 8 0 14 -6 14 -12 0 -9 4 -8 10 2 8 13 10 13 10 1 0 -8
10 -25 22 -38 16 -17 22 -36 22 -71 1 -45 0 -47 -24 -43 -14 2 -32 4 -40 5 -8
0 -18 9 -23 20 -7 17 -9 18 -25 2 -23 -20 -33 -21 -26 -2 6 15 -29 32 -45 21
-6 -3 -4 7 4 21 16 32 12 45 -13 38 -10 -4 -13 -3 -6 3 6 4 15 19 19 32 7 22
5 23 -19 19 -14 -3 -26 -1 -26 3 0 5 5 9 10 9 6 0 10 11 10 25 0 14 -5 25 -11
25 -5 0 -7 -4 -4 -10 3 -5 2 -10 -3 -10 -14 0 -33 26 -30 41 2 7 -2 13 -9 14
-17 0 -26 12 -19 24 4 5 20 -3 38 -20 18 -16 36 -29 41 -29z m-3738 -720 c11
-5 15 -9 9 -9 -11 -1 -39 -149 -30 -158 3 -4 1 -12 -4 -18 -7 -9 -5 -28 6 -61
20 -59 14 -54 61 -65 64 -16 67 -17 96 -28 82 -32 132 2 147 99 25 152 22 145
55 143 64 -3 125 -16 135 -28 7 -8 4 -26 -9 -57 -11 -24 -23 -64 -27 -88 -4
-25 -11 -53 -15 -62 -6 -12 -2 -29 12 -55 36 -65 27 -60 182 -95 47 -11 50
-10 76 18 20 21 33 51 45 106 21 91 37 103 77 56 32 -38 37 -83 15 -150 -8
-24 -17 -55 -20 -70 -10 -45 -28 -56 -83 -47 -69 10 -91 16 -153 40 -52 20
-133 43 -192 54 -15 3 -33 12 -42 20 -12 13 -23 13 -61 5 -47 -11 -55 -8 -93
32 -9 10 -32 21 -51 24 -46 9 -141 51 -141 63 0 30 -192 34 -235 5 -26 -19
-30 -18 -33 9 -4 44 7 67 33 67 14 0 25 -4 25 -10 0 -5 7 -10 16 -10 10 0 14
6 10 15 -3 8 -2 15 2 15 16 0 39 57 41 105 2 27 5 54 8 58 3 5 6 22 7 38 1 17
9 35 17 40 17 11 87 11 114 -1z m-100 -665 c14 -14 25 -34 25 -43 1 -36 27
-52 120 -73 l92 -21 50 23 c45 21 53 22 96 10 50 -13 95 -48 118 -93 10 -20
29 -32 67 -43 110 -33 160 -30 205 13 8 7 17 10 22 7 5 -3 18 11 30 30 39 62
32 32 -15 -68 -25 -53 -54 -132 -66 -174 -12 -43 -27 -89 -35 -103 -18 -33
-17 -22 1 30 18 50 19 86 4 96 -6 4 -25 10 -43 14 -17 5 -64 18 -105 30 -41
11 -88 20 -105 18 l-31 -3 -1 -75 c-1 -41 -6 -97 -12 -124 -15 -71 -2 -99 57
-125 42 -18 133 -43 137 -38 1 1 18 35 38 76 57 111 53 79 -5 -50 -87 -193
-112 -255 -118 -288 -1 -2 -4 -2 -7 1 -3 4 6 38 20 76 22 62 23 70 8 67 -9 -1
-22 1 -28 6 -6 5 -39 12 -72 15 -68 7 -98 -5 -84 -35 9 -19 8 -118 -3 -182 -7
-43 -5 -47 25 -72 17 -15 38 -27 46 -27 9 0 26 25 41 56 49 107 32 46 -26 -92
-32 -76 -68 -167 -81 -201 -12 -35 -26 -63 -31 -63 -5 0 5 36 21 81 17 44 30
84 30 89 0 5 -21 12 -47 15 -27 4 -85 18 -130 31 -46 14 -88 22 -95 18 -7 -4
-8 -3 -4 4 15 25 -43 12 -62 -13 -19 -24 -21 -24 -26 -7 -4 10 -19 25 -34 32
-15 7 -35 16 -44 21 -10 5 -24 9 -32 9 -13 0 -29 15 -88 81 -25 27 -63 24
-115 -11 -24 -16 -53 -30 -64 -30 -16 0 -19 7 -19 50 0 64 22 119 47 118 10
-1 35 6 56 15 36 16 37 18 38 69 0 29 6 71 13 93 11 38 14 40 51 41 64 2 68
-6 61 -123 -7 -102 -7 -103 18 -127 28 -26 159 -76 199 -76 38 0 86 20 91 38
3 10 13 49 21 87 35 152 34 143 11 163 -30 27 -61 42 -88 42 -13 0 -32 6 -43
13 -26 17 -95 37 -130 37 -21 0 -41 14 -77 50 -27 28 -52 50 -57 50 -19 0 -62
-28 -82 -54 -14 -17 -29 -26 -43 -24 -17 2 -22 11 -24 49 -3 53 14 79 53 79
47 0 95 90 95 180 0 99 -7 117 -48 127 -33 8 -37 13 -45 53 -13 64 9 105 59
115 21 4 53 20 72 36 43 38 91 39 127 4z m2785 -27 c0 -7 12 -35 25 -63 14
-27 25 -54 25 -59 0 -9 7 -25 79 -179 23 -48 41 -91 41 -94 0 -3 9 -24 19 -47
32 -68 48 -108 75 -186 15 -41 31 -84 36 -95 5 -11 17 -46 26 -78 8 -32 23
-61 31 -64 12 -5 12 -7 1 -14 -11 -7 -10 -11 2 -19 8 -5 11 -10 6 -10 -5 0 1
-9 13 -19 13 -11 17 -21 10 -23 -9 -3 129 -103 186 -133 11 -6 19 -19 19 -29
-1 -9 9 -24 22 -33 21 -14 24 -23 24 -84 0 -39 -4 -69 -10 -69 -5 0 -10 8 -10
18 0 10 -7 19 -15 19 -10 0 -16 -12 -17 -36 -6 -115 16 -277 43 -310 23 -28
36 -22 19 9 -6 11 -9 26 -7 33 6 16 57 -99 57 -127 0 -18 -6 -21 -37 -21 -29
1 -55 13 -111 53 -39 29 -75 52 -80 52 -4 0 2 -7 12 -15 22 -17 17 -29 -7 -19
-9 3 -14 14 -12 25 3 16 -15 29 -97 70 -55 28 -98 52 -95 55 2 2 17 0 32 -6
35 -13 43 -6 20 20 -11 13 -25 18 -37 14 -10 -3 -18 -1 -18 5 0 6 4 11 10 11
9 0 2 30 -10 40 -3 3 -18 31 -33 63 -15 32 -32 64 -37 70 -40 47 -50 61 -50
70 0 5 -7 6 -15 3 -9 -3 -15 -1 -14 7 1 6 0 23 -2 37 -1 14 -5 -9 -9 -50 l-6
-75 -2 105 c-1 58 -6 120 -11 137 -5 18 -6 35 -2 37 3 2 8 51 9 108 2 56 5
105 7 107 3 2 -4 12 -15 21 -11 10 -25 41 -31 71 -15 77 -15 84 -1 82 16 -4
15 5 -2 23 -8 8 -18 40 -21 71 -12 107 -42 252 -54 268 -5 5 -12 21 -16 35
l-8 25 23 -20 c12 -11 26 -30 31 -43 5 -13 13 -21 18 -18 4 3 6 -6 3 -19 -3
-16 0 -25 8 -25 7 0 10 -7 6 -15 -3 -8 -1 -15 4 -15 6 0 9 -3 8 -7 -2 -12 14
-64 28 -92 8 -14 14 -36 14 -48 0 -13 4 -23 9 -23 5 0 12 -17 16 -37 4 -21 13
-49 21 -64 7 -15 16 -46 20 -70 4 -24 11 -52 16 -61 6 -12 5 -18 -2 -18 -6 0
-8 -5 -4 -12 6 -9 9 -9 12 0 7 23 21 12 19 -17 -1 -18 -7 -27 -14 -24 -7 3
-13 1 -13 -3 0 -5 24 -22 53 -38 28 -16 60 -36 70 -44 26 -23 29 -10 7 36 -11
22 -20 46 -20 52 0 5 -4 10 -10 10 -5 0 -10 4 -10 9 0 5 -5 22 -11 38 -8 22
-12 24 -19 13 -7 -11 -10 -3 -10 25 0 40 -78 297 -92 303 -5 2 -8 15 -8 28 0
14 -7 41 -16 62 -9 20 -31 78 -49 127 -48 132 -69 175 -81 171 -7 -3 -9 5 -6
20 4 25 22 34 22 12z m207 -250 c3 -16 9 -28 14 -28 5 0 9 -5 9 -11 0 -6 10
-32 23 -58 13 -25 22 -52 19 -59 -2 -6 1 -12 6 -12 5 0 20 -26 32 -57 12 -32
26 -67 31 -78 34 -80 93 -286 104 -365 1 -14 6 -38 10 -55 l8 -30 -26 24 c-14
13 -26 26 -25 30 1 3 -1 13 -4 21 -17 48 -38 130 -38 148 0 12 -3 22 -7 22 -5
0 -9 12 -10 26 -1 26 -23 109 -44 169 -50 143 -62 175 -78 210 -45 95 -60 132
-67 155 l-6 25 21 -25 c13 -14 25 -37 28 -52z m-3770 -243 c9 -3 10 -12 1 -35
-8 -24 -23 -37 -62 -54 -28 -13 -66 -35 -84 -51 -31 -26 -34 -27 -70 -13 -20
7 -38 21 -40 30 -2 9 17 40 40 69 41 51 47 54 99 60 50 5 86 3 116 -6z m-2912
-245 c47 -39 -32 -180 -101 -180 -8 0 -14 -7 -14 -15 0 -22 -38 -38 -76 -30
l-34 6 34 34 c34 33 38 46 52 135 3 25 11 51 17 58 13 16 100 10 122 -8z
m2715 -78 c0 -20 3 -47 6 -59 7 -27 52 -44 98 -36 43 7 50 -5 24 -46 -15 -23
-43 -43 -96 -68 -93 -43 -117 -38 -127 31 -8 49 1 123 16 132 5 3 9 13 9 23 0
23 47 74 60 66 6 -3 10 -23 10 -43z m-4023 -18 c47 -5 52 -8 58 -35 4 -16 11
-31 16 -34 16 -10 10 -34 -12 -46 -16 -8 -52 -8 -142 2 -139 14 -161 26 -150
81 3 18 11 36 17 41 10 7 91 4 213 -9z m-108 -387 c13 -6 30 -30 39 -51 14
-36 14 -40 -3 -52 -24 -18 -134 -18 -157 -1 -24 19 -13 95 16 107 31 13 78 11
105 -3z m4061 -46 c0 -41 28 -71 75 -78 60 -9 69 -20 44 -54 -11 -16 -27 -29
-35 -29 -24 0 -77 -31 -98 -56 -13 -16 -23 -20 -35 -14 -9 5 -24 11 -35 14
-16 6 -18 13 -12 69 9 83 33 154 58 172 27 18 38 11 38 -24z m3963 -361 c14
-41 28 -91 32 -110 9 -47 27 -103 37 -114 4 -6 8 -20 8 -33 0 -12 7 -37 14
-55 8 -18 18 -55 21 -81 4 -28 15 -57 26 -68 12 -12 18 -27 14 -38 -4 -13 3
-24 20 -35 14 -9 25 -23 25 -31 0 -19 -14 -19 -32 -1 -17 17 -58 30 -58 19 0
-4 16 -28 35 -52 19 -24 35 -48 35 -53 0 -11 40 -68 63 -89 9 -9 17 -29 17
-45 0 -27 9 -57 37 -124 6 -14 8 -30 6 -37 -5 -12 83 -103 99 -103 5 0 13 -11
18 -25 5 -14 14 -25 20 -25 5 0 10 -13 10 -30 0 -16 9 -39 19 -49 13 -13 18
-27 14 -43 -6 -20 -4 -21 9 -11 8 7 18 10 21 6 4 -3 7 9 8 28 1 19 5 45 9 59
8 23 8 23 11 -10 1 -19 2 -44 1 -55 -11 -110 -14 -153 -16 -233 -2 -51 -6 -95
-9 -99 -4 -3 -7 -1 -7 6 0 7 -4 10 -9 7 -12 -8 -125 51 -195 102 -33 23 -56
42 -52 42 3 0 -1 17 -9 38 -9 20 -27 78 -40 127 -14 50 -35 124 -49 165 -13
41 -34 118 -46 170 -13 52 -29 109 -37 127 -7 18 -13 46 -13 62 0 17 -9 53
-20 81 -25 62 -27 122 -5 114 19 -8 19 13 0 46 -8 14 -14 49 -15 79 0 75 -18
165 -45 232 -22 54 -23 56 -4 52 25 -7 25 21 0 71 -18 34 -25 67 -22 106 2 30
29 -15 54 -90z m-2933 -36 c22 -6 50 -57 50 -92 0 -16 7 -49 15 -72 19 -55 19
-57 -10 -85 -20 -20 -34 -25 -77 -25 -57 0 -132 29 -154 58 -17 22 -17 87 -1
132 17 49 25 59 61 81 29 19 61 20 116 3z m-5638 -138 c10 -7 22 -25 28 -40 8
-23 7 -34 -11 -62 -16 -27 -27 -34 -53 -34 -44 0 -56 16 -56 71 0 70 45 101
92 65z m9619 -153 c-21 -82 -26 -114 -18 -122 8 -8 3 -10 -21 -5 -24 5 -38 2
-52 -11 -31 -28 -41 -9 -19 40 11 25 17 51 13 58 -4 6 -4 9 1 5 5 -5 17 7 28
25 26 43 90 127 94 123 2 -1 -10 -53 -26 -113z m-4263 -173 c41 -16 61 -18 86
-11 56 15 153 -7 197 -46 9 -8 27 -15 40 -15 13 -1 30 -6 37 -11 7 -6 17 -6
25 0 6 6 19 10 28 10 15 0 16 -13 12 -101 -7 -127 3 -150 127 -298 49 -60 86
-108 82 -108 -4 0 -13 9 -20 21 -7 11 -18 19 -25 16 -7 -2 -34 2 -62 9 -27 8
-66 14 -87 14 -20 0 -38 4 -40 9 -1 5 -25 11 -53 15 -27 3 -51 10 -53 16 -2 5
-18 10 -35 10 -18 0 -59 7 -92 16 -33 8 -89 22 -124 31 -36 8 -85 26 -109 39
-52 28 -89 30 -158 9 -70 -21 -73 -20 -63 18 4 17 14 54 20 80 10 39 16 47 31
44 10 -3 16 -2 13 3 -3 4 5 10 16 13 14 4 20 11 16 21 -3 8 2 30 11 48 9 18
16 52 15 76 -1 23 3 42 8 42 5 0 9 9 9 19 0 35 71 40 148 11z m-948 -497 c1
-43 24 -65 73 -70 43 -5 43 -6 43 -44 -1 -46 -11 -57 -73 -81 -107 -41 -134
-15 -107 104 3 14 1 34 -5 45 -8 14 -5 23 17 45 35 35 52 35 52 1z m848 -15
c13 -13 79 -38 103 -38 9 0 28 11 43 25 15 14 37 25 49 25 41 0 97 -21 120
-44 23 -25 117 -46 117 -27 0 14 36 24 60 16 11 -3 20 -14 20 -24 0 -14 11
-19 51 -24 28 -4 63 -4 79 -1 18 4 39 0 59 -12 26 -15 31 -25 31 -55 0 -21 -5
-39 -11 -41 -6 -2 -11 -34 -12 -76 -1 -67 1 -75 26 -97 60 -56 102 -13 112
115 1 14 3 34 3 45 2 15 13 4 42 -40 l40 -60 -7 -82 c-3 -46 -3 -83 1 -83 4 0
16 4 26 10 22 12 31 -8 25 -55 -2 -16 1 -48 5 -71 5 -22 10 -105 11 -185 2
-116 -1 -152 -15 -184 -10 -22 -20 -35 -24 -29 -11 16 -122 18 -123 2 0 -7 -4
-4 -9 7 -8 18 -9 18 -10 -5 -1 -14 -6 -34 -11 -45 -8 -17 -8 -15 -4 8 3 15 1
27 -4 27 -5 0 -12 -21 -16 -47 -3 -27 -10 -64 -15 -83 -5 -19 -14 -62 -21 -95
-6 -33 -16 -63 -21 -66 -5 -3 -11 -17 -13 -32 -5 -23 -1 -27 29 -33 21 -3 54
0 83 9 26 9 64 18 83 22 19 4 49 12 65 20 17 7 58 15 92 18 34 3 71 11 82 17
12 6 26 8 31 5 6 -3 10 -1 10 6 0 7 3 10 6 6 12 -12 -39 -78 -115 -149 -43
-40 -86 -86 -97 -103 -28 -44 -107 -141 -112 -137 -2 2 -10 -5 -16 -16 -6 -11
-19 -30 -28 -43 -9 -13 -22 -46 -29 -74 -18 -76 -30 -105 -44 -105 -8 0 -19
-17 -26 -37 -6 -21 -16 -41 -22 -44 -5 -4 -5 -9 2 -13 6 -4 11 -2 11 3 0 6 7
11 16 11 11 0 14 -5 9 -17 -4 -10 -10 -27 -13 -38 -3 -11 -12 -26 -19 -33 -7
-7 -13 -33 -13 -58 0 -24 -4 -44 -9 -44 -5 0 -11 -33 -14 -72 -5 -73 -20 -166
-38 -225 -5 -17 -12 -49 -15 -70 -5 -40 -21 -97 -35 -125 -5 -10 -9 -25 -9
-33 0 -9 -7 -32 -16 -53 -10 -20 -16 -44 -15 -53 1 -8 -5 -29 -14 -45 -8 -16
-15 -38 -16 -49 l0 -20 -9 20 c-9 22 -13 16 -24 -37 -8 -34 1 -32 101 29 40
23 75 43 77 43 3 0 50 29 105 65 54 36 117 71 138 79 56 20 142 65 180 93 27
21 220 121 544 283 41 21 100 53 130 72 30 19 83 50 119 70 36 19 94 53 130
74 57 35 329 192 583 336 45 26 134 75 197 109 63 34 126 70 140 79 47 33 140
80 158 80 16 -1 16 -1 0 -11 -10 -5 -18 -15 -18 -20 0 -6 4 -8 9 -5 5 4 11 2
13 -3 1 -5 23 -12 48 -15 72 -10 138 -39 257 -118 62 -40 143 -91 180 -113 81
-49 139 -99 159 -137 8 -16 17 -57 21 -93 7 -76 -16 -159 -53 -191 -13 -12
-21 -24 -17 -28 3 -3 -1 -6 -9 -6 -9 0 -18 -3 -20 -8 -7 -16 -95 -82 -101 -75
-4 3 -7 2 -7 -4 0 -12 -122 -93 -140 -93 -6 0 -8 -4 -5 -10 3 -5 1 -10 -5 -10
-6 0 -27 -12 -46 -26 -19 -15 -34 -24 -34 -20 0 3 -9 -2 -19 -11 -40 -36 -257
-183 -270 -183 -5 0 -11 -3 -13 -7 -5 -11 -66 -53 -77 -53 -5 0 -11 -4 -13 -9
-1 -5 -104 -76 -228 -158 -124 -82 -236 -157 -250 -166 -14 -10 -56 -38 -95
-64 -38 -26 -76 -53 -83 -60 -6 -6 -22 -15 -35 -19 -12 -4 -24 -10 -27 -14 -8
-11 -131 -90 -141 -90 -5 0 -9 -4 -9 -10 0 -5 -3 -9 -8 -7 -4 1 -18 -8 -32
-21 -13 -12 -29 -22 -35 -22 -6 0 -20 -8 -31 -18 -10 -10 -38 -29 -61 -42 -24
-13 -43 -28 -43 -32 0 -5 -13 -14 -30 -19 -16 -6 -30 -15 -30 -20 0 -5 -9 -9
-21 -9 -11 0 -18 -4 -15 -9 3 -4 -15 -19 -39 -31 -25 -13 -45 -27 -45 -32 0
-4 -7 -8 -15 -8 -8 0 -15 -4 -15 -8 0 -5 -19 -18 -42 -28 -24 -10 -50 -25 -58
-32 -50 -43 -103 -82 -112 -82 -5 0 -24 -11 -42 -25 -18 -14 -38 -25 -44 -25
-7 0 -12 -5 -12 -11 0 -5 -4 -7 -10 -4 -5 3 -10 -1 -10 -9 0 -9 -7 -16 -15
-16 -16 0 -27 -8 -66 -43 -10 -9 -23 -17 -29 -17 -5 0 -10 -4 -10 -9 0 -5 -8
-11 -17 -14 -25 -8 -73 -38 -103 -65 -14 -12 -33 -25 -42 -28 -10 -3 -18 -10
-18 -15 0 -5 -5 -9 -11 -9 -6 0 -20 -11 -31 -25 -25 -32 -69 -55 -105 -55 -15
0 -57 14 -92 30 -148 70 -348 335 -426 564 -15 44 -40 96 -56 115 l-29 36 25
49 c14 27 25 57 25 67 0 34 23 74 64 111 l41 37 -33 7 c-19 4 -36 13 -39 20
-7 18 34 69 73 90 38 20 35 12 74 259 49 311 42 269 126 720 45 242 55 316 64
475 5 96 16 204 25 240 9 36 20 83 25 105 8 43 106 404 139 519 22 74 20 90
-10 81 -10 -4 -31 0 -46 8 -40 21 -121 38 -323 67 -30 4 -98 20 -150 34 -52
15 -111 31 -130 36 -19 5 -62 15 -95 24 -33 8 -78 14 -100 14 -24 0 -55 8 -78
22 -33 19 -46 21 -101 15 -59 -6 -65 -5 -71 14 -9 29 5 109 22 126 8 8 20 15
28 15 20 0 59 89 63 145 2 28 11 58 19 68 19 20 92 24 111 5z m-803 -530 c3
-3 6 -24 7 -47 1 -30 -4 -45 -18 -57 -70 -55 -174 -52 -174 6 0 29 29 88 47
99 17 9 129 9 138 -1z m1016 -19 c31 -33 35 -49 18 -66 -9 -9 -12 -53 -6 -113
2 -20 -5 -29 -35 -43 -48 -24 -87 -16 -127 26 -29 29 -42 67 -22 67 17 0 21
73 6 97 -19 28 -19 33 0 33 9 0 18 6 21 14 3 9 24 14 61 15 49 1 58 -2 84 -30z
m434 -95 c20 -25 20 -30 8 -78 -7 -28 -10 -65 -7 -82 9 -47 -11 -77 -44 -69
-15 4 -35 15 -44 25 -22 24 -24 70 -3 70 19 0 22 96 3 103 -9 4 -4 14 15 31
35 33 46 32 72 0z m2980 -175 c5 -6 4 -9 -4 -9 -7 0 -9 -4 -6 -10 3 -5 15 -10
25 -10 12 0 17 -5 14 -13 -3 -8 24 -26 71 -50 82 -40 88 -49 99 -134 6 -48 5
-53 -12 -53 -11 0 -34 11 -53 25 -82 59 -166 113 -185 119 -55 17 -77 96 -37
136 18 19 67 19 88 -1z m-4195 -1749 c45 -23 80 -68 80 -104 0 -20 -7 -27 -37
-35 -20 -6 -41 -7 -47 -2 -6 5 -28 14 -48 20 -41 14 -88 62 -88 91 0 22 43 49
78 50 12 0 40 -9 62 -20z m475 -84 c54 -5 84 -48 51 -75 -16 -14 -41 -96 -38
-129 3 -42 -77 -52 -120 -14 -22 19 -23 32 -2 32 13 0 15 10 10 63 -9 102 -9
110 10 124 10 7 26 10 37 7 10 -3 33 -7 52 -8z"/>
<path d="M6500 6841 c-8 -6 -17 -8 -22 -5 -14 9 -40 -44 -33 -67 5 -13 10 -18
17 -11 10 10 71 -7 91 -27 8 -8 11 -44 9 -115 -3 -103 -3 -104 27 -134 33 -33
136 -62 217 -62 51 0 57 8 68 100 4 30 15 72 25 94 34 72 -1 113 -123 141 -36
8 -82 27 -102 40 -20 14 -46 25 -58 25 -12 0 -34 7 -50 15 -33 17 -45 18 -66
6z"/>
<path d="M16384 9348 c-3 -4 -14 -8 -24 -8 -14 0 -18 -5 -13 -17 4 -11 8 -12
11 -5 5 16 42 16 42 0 0 -9 3 -9 12 0 7 7 23 12 36 12 18 0 22 -4 18 -17 -3
-10 -2 -24 3 -32 7 -10 11 -5 16 18 7 35 21 40 30 12 3 -10 18 -21 33 -25 15
-3 35 -19 47 -38 28 -44 41 -45 55 -4 9 27 8 40 -1 58 -18 33 -28 38 -94 39
-33 0 -84 4 -113 8 -29 4 -55 4 -58 -1z"/>
<path d="M17163 9281 c-18 -28 -16 -73 3 -121 12 -29 20 -38 27 -31 19 19 43
12 55 -14 6 -14 18 -25 26 -25 7 0 17 -7 20 -16 4 -11 13 -14 30 -10 14 3 28
1 31 -5 4 -6 14 -8 23 -4 8 3 18 1 22 -5 4 -6 24 -15 44 -20 33 -7 38 -5 57
21 16 23 18 32 9 50 -7 12 -10 49 -7 87 6 97 -3 102 -185 108 -136 5 -144 4
-155 -15z"/>
<path d="M17410 7754 c-98 -18 -103 -24 -94 -133 5 -69 11 -90 28 -107 19 -20
23 -20 50 -7 26 13 28 19 23 53 -3 24 0 43 7 49 17 14 72 6 91 -12 9 -10 20
-17 25 -17 5 0 12 -14 15 -32 10 -45 37 -70 71 -66 l29 3 5 98 c3 54 2 106 -1
116 -13 33 -173 69 -249 55z"/>
<path d="M16638 7270 c-23 -18 -24 -22 -16 -67 6 -26 12 -71 15 -100 5 -58 27
-85 60 -77 28 8 47 55 39 95 -3 18 -1 50 5 72 10 38 9 41 -21 68 -37 34 -49
36 -82 9z"/>
<path d="M17391 7176 c-12 -14 -7 -67 9 -95 8 -13 9 -11 10 9 0 18 8 29 30 38
36 16 76 12 72 -7 -3 -12 0 -12 12 -2 8 7 24 10 36 6 12 -4 27 -2 35 5 14 12
45 9 85 -7 16 -7 32 -7 43 -1 23 12 22 15 -10 43 l-28 24 -22 -21 c-16 -15
-29 -19 -50 -14 -35 9 -65 14 -128 21 -27 3 -57 8 -66 10 -9 3 -21 -1 -28 -9z"/>
<path d="M16570 6723 c-53 -36 -53 -38 -46 -135 9 -120 39 -177 92 -178 40 0
45 20 41 161 -4 123 -6 134 -27 151 -27 22 -30 22 -60 1z"/>
<path d="M17008 6596 c-20 -15 -24 -66 -7 -99 40 -77 138 -75 145 4 4 49 -3
66 -40 89 -38 23 -73 25 -98 6z"/>
<path d="M10186 6035 c3 -17 15 -44 26 -62 22 -37 102 -99 140 -108 39 -10 45
-20 67 -130 12 -55 26 -118 32 -140 6 -22 18 -69 26 -104 l16 -64 13 39 c15
43 18 94 7 94 -5 0 -9 10 -10 23 -6 84 -18 148 -29 158 -8 6 -14 19 -15 28 0
10 -4 8 -10 -7 -5 -13 -6 -29 -3 -35 5 -8 4 -9 -3 -2 -6 6 -13 31 -16 58 l-5
47 64 0 c44 0 64 -4 64 -12 0 -9 3 -10 8 -2 13 20 70 25 87 8 14 -14 17 -14
33 3 9 11 37 28 62 38 61 25 65 30 52 59 l-11 25 -58 -26 c-47 -21 -78 -27
-163 -31 -158 -7 -255 29 -340 125 -39 45 -41 46 -34 18z"/>
</g>
</svg>
