<?xml version="1.0" encoding="UTF-8" standalone="no"?>
<svg
   xmlns:dc="http://purl.org/dc/elements/1.1/"
   xmlns:cc="http://creativecommons.org/ns#"
   xmlns:rdf="http://www.w3.org/1999/02/22-rdf-syntax-ns#"
   xmlns:svg="http://www.w3.org/2000/svg"
   xmlns="http://www.w3.org/2000/svg"
   id="svg13"
   viewBox="0 0 9144 9144"
   style="shape-rendering:geometricPrecision; text-rendering:geometricPrecision; image-rendering:optimizeQuality; fill-rule:evenodd; clip-rule:evenodd"
   version="1.1"
   height="91.44mm"
   width="91.44mm">
  <metadata
     id="metadata17">
    <rdf:RDF>
      <cc:Work
         rdf:about="">
        <dc:format>image/svg+xml</dc:format>
        <dc:type
           rdf:resource="http://purl.org/dc/dcmitype/StillImage" />
      </cc:Work>
    </rdf:RDF>
  </metadata>
  <defs
     id="defs4">
    <style
       id="style2"
       type="text/css">  .fil0 {fill:#F0F0F0} .fil1 {fill:#011627;fill-rule:nonzero}  </style>
  </defs>
  <g
     id="Layer_x0020_1">
    <metadata
       id="CorelCorpID_0Corel-Layer" />
    <g
       id="_2744583925152">
      <polygon
         id="polygon7"
         points="0,0 9144,0 9144,9144 0,9144 "
         class="fil0" />
      <path
         id="path9"
         d="M4603 3552l1551 888 377 -198 0 -1581 -927 346c-11,6 -23,9 -36,9l-1325 0 -723 814 553 158 396 -446c31,-34 85,-38 120,-7 5,5 10,11 14,17zm-2187 2067l190 -328 -257 -540c-6,-11 -10,-25 -10,-39l0 -1991 1 0c0,-20 7,-40 21,-56 32,-35 85,-37 120,-6l636 577 71 -135c16,-30 48,-47 80,-45l713 0 158 -178c16,-20 40,-32 66,-32l1348 0 1033 -385c44,-17 92,6 108,49 4,10 6,20 6,30l0 1753c0,35 -21,64 -51,78l-321 169 434 248c41,23 55,75 32,116l-3 4 -300 519c-23,40 -75,54 -115,31l-4 -3 -77 -44 -230 397c-23,40 -75,54 -115,31l-4 -3 -118 -68 -228 396c-24,40 -76,54 -116,31l-183 -106 -246 427c-23,40 -75,54 -115,31l-514 -297 -229 397 -1 0c-23,40 -74,54 -114,30l-405 -233c-1,-1 -3,-1 -4,-2 -2,-1 -3,-2 -5,-3l-399 -231c-2,-1 -3,-1 -5,-2 -1,-1 -3,-2 -4,-3l-813 -469c-40,-23 -54,-75 -31,-115zm292 -506l132 -228c23,-40 74,-54 115,-31l408 236 1 0 403 233c2,1 4,2 5,3 2,1 3,2 5,3l399 230c2,1 3,2 5,3 1,1 3,2 4,3l400 230c1,1 3,2 4,3 41,23 55,75 31,115l-110 190 441 256 204 -354 -264 -153c-40,-23 -54,-75 -31,-115 24,-40 75,-54 116,-31l520 300 186 -322 -520 -300c-40,-24 -54,-75 -31,-115 23,-41 75,-55 115,-32l588 340c2,1 4,2 5,3 2,1 4,2 5,3l117 67 188 -324 -715 -413c-41,-23 -55,-74 -31,-115 23,-40 74,-54 115,-31l784 453c1,1 3,1 4,2 2,1 3,2 5,3l76 44 218 -376 -2061 -1180 -379 425c-20,25 -55,36 -88,27l-733 -210c-12,-3 -23,-9 -33,-18 -35,-31 -38,-84 -7,-119l527 -593 -517 0 -98 186c-22,41 -73,57 -114,35 -8,-4 -16,-10 -22,-16l-571 -518 0 1781 199 420zm236 -71l-166 288c-2,4 -5,9 -8,13l-166 287 263 151 339 -587 -262 -152zm408 236l-339 588 262 151 340 -587 -263 -152zm409 236l-339 588 262 151 339 -587 -262 -152zm409 236l-340 588 263 151 339 -587 -262 -152z"
         class="fil1" />
    </g>
  </g>
</svg>
